%TF.GenerationSoftware,KiCad,Pcbnew,10.0.6*%
%TF.CreationDate,2026-09-20T16:54:26-05:00*%
%TF.ProjectId,Onboarding-II,4f6e626f-6172-4646-996e-672d49492e6b,rev?*%
%TF.SameCoordinates,Original*%
%TF.FileFunction,Legend,Top*%
%TF.FilePolarity,Positive*%
%FSLAX46Y46*%
G04 Gerber Fmt 4.6, Leading zero omitted, Abs format (unit mm)*
G04 Created by KiCad (PCBNEW 10.0.6) date 2026-09-20 16:54:26*
%MOMM*%
%LPD*%
G01*
G04 APERTURE LIST*
%ADD10C,0.150000*%
%ADD11C,0.254000*%
%ADD12C,0.120000*%
%ADD13C,0.200000*%
G04 APERTURE END LIST*
D10*
X142333333Y-53859580D02*
X142285714Y-53907200D01*
X142285714Y-53907200D02*
X142142857Y-53954819D01*
X142142857Y-53954819D02*
X142047619Y-53954819D01*
X142047619Y-53954819D02*
X141904762Y-53907200D01*
X141904762Y-53907200D02*
X141809524Y-53811961D01*
X141809524Y-53811961D02*
X141761905Y-53716723D01*
X141761905Y-53716723D02*
X141714286Y-53526247D01*
X141714286Y-53526247D02*
X141714286Y-53383390D01*
X141714286Y-53383390D02*
X141761905Y-53192914D01*
X141761905Y-53192914D02*
X141809524Y-53097676D01*
X141809524Y-53097676D02*
X141904762Y-53002438D01*
X141904762Y-53002438D02*
X142047619Y-52954819D01*
X142047619Y-52954819D02*
X142142857Y-52954819D01*
X142142857Y-52954819D02*
X142285714Y-53002438D01*
X142285714Y-53002438D02*
X142333333Y-53050057D01*
X142714286Y-53050057D02*
X142761905Y-53002438D01*
X142761905Y-53002438D02*
X142857143Y-52954819D01*
X142857143Y-52954819D02*
X143095238Y-52954819D01*
X143095238Y-52954819D02*
X143190476Y-53002438D01*
X143190476Y-53002438D02*
X143238095Y-53050057D01*
X143238095Y-53050057D02*
X143285714Y-53145295D01*
X143285714Y-53145295D02*
X143285714Y-53240533D01*
X143285714Y-53240533D02*
X143238095Y-53383390D01*
X143238095Y-53383390D02*
X142666667Y-53954819D01*
X142666667Y-53954819D02*
X143285714Y-53954819D01*
X138833333Y-56859580D02*
X138785714Y-56907200D01*
X138785714Y-56907200D02*
X138642857Y-56954819D01*
X138642857Y-56954819D02*
X138547619Y-56954819D01*
X138547619Y-56954819D02*
X138404762Y-56907200D01*
X138404762Y-56907200D02*
X138309524Y-56811961D01*
X138309524Y-56811961D02*
X138261905Y-56716723D01*
X138261905Y-56716723D02*
X138214286Y-56526247D01*
X138214286Y-56526247D02*
X138214286Y-56383390D01*
X138214286Y-56383390D02*
X138261905Y-56192914D01*
X138261905Y-56192914D02*
X138309524Y-56097676D01*
X138309524Y-56097676D02*
X138404762Y-56002438D01*
X138404762Y-56002438D02*
X138547619Y-55954819D01*
X138547619Y-55954819D02*
X138642857Y-55954819D01*
X138642857Y-55954819D02*
X138785714Y-56002438D01*
X138785714Y-56002438D02*
X138833333Y-56050057D01*
X139785714Y-56954819D02*
X139214286Y-56954819D01*
X139500000Y-56954819D02*
X139500000Y-55954819D01*
X139500000Y-55954819D02*
X139404762Y-56097676D01*
X139404762Y-56097676D02*
X139309524Y-56192914D01*
X139309524Y-56192914D02*
X139214286Y-56240533D01*
X160051666Y-50684819D02*
X160051666Y-51399104D01*
X160051666Y-51399104D02*
X160004047Y-51541961D01*
X160004047Y-51541961D02*
X159908809Y-51637200D01*
X159908809Y-51637200D02*
X159765952Y-51684819D01*
X159765952Y-51684819D02*
X159670714Y-51684819D01*
X161051666Y-51684819D02*
X160480238Y-51684819D01*
X160765952Y-51684819D02*
X160765952Y-50684819D01*
X160765952Y-50684819D02*
X160670714Y-50827676D01*
X160670714Y-50827676D02*
X160575476Y-50922914D01*
X160575476Y-50922914D02*
X160480238Y-50970533D01*
X147833333Y-63359580D02*
X147785714Y-63407200D01*
X147785714Y-63407200D02*
X147642857Y-63454819D01*
X147642857Y-63454819D02*
X147547619Y-63454819D01*
X147547619Y-63454819D02*
X147404762Y-63407200D01*
X147404762Y-63407200D02*
X147309524Y-63311961D01*
X147309524Y-63311961D02*
X147261905Y-63216723D01*
X147261905Y-63216723D02*
X147214286Y-63026247D01*
X147214286Y-63026247D02*
X147214286Y-62883390D01*
X147214286Y-62883390D02*
X147261905Y-62692914D01*
X147261905Y-62692914D02*
X147309524Y-62597676D01*
X147309524Y-62597676D02*
X147404762Y-62502438D01*
X147404762Y-62502438D02*
X147547619Y-62454819D01*
X147547619Y-62454819D02*
X147642857Y-62454819D01*
X147642857Y-62454819D02*
X147785714Y-62502438D01*
X147785714Y-62502438D02*
X147833333Y-62550057D01*
X148690476Y-62788152D02*
X148690476Y-63454819D01*
X148452381Y-62407200D02*
X148214286Y-63121485D01*
X148214286Y-63121485D02*
X148833333Y-63121485D01*
X144833333Y-63859580D02*
X144785714Y-63907200D01*
X144785714Y-63907200D02*
X144642857Y-63954819D01*
X144642857Y-63954819D02*
X144547619Y-63954819D01*
X144547619Y-63954819D02*
X144404762Y-63907200D01*
X144404762Y-63907200D02*
X144309524Y-63811961D01*
X144309524Y-63811961D02*
X144261905Y-63716723D01*
X144261905Y-63716723D02*
X144214286Y-63526247D01*
X144214286Y-63526247D02*
X144214286Y-63383390D01*
X144214286Y-63383390D02*
X144261905Y-63192914D01*
X144261905Y-63192914D02*
X144309524Y-63097676D01*
X144309524Y-63097676D02*
X144404762Y-63002438D01*
X144404762Y-63002438D02*
X144547619Y-62954819D01*
X144547619Y-62954819D02*
X144642857Y-62954819D01*
X144642857Y-62954819D02*
X144785714Y-63002438D01*
X144785714Y-63002438D02*
X144833333Y-63050057D01*
X145166667Y-62954819D02*
X145785714Y-62954819D01*
X145785714Y-62954819D02*
X145452381Y-63335771D01*
X145452381Y-63335771D02*
X145595238Y-63335771D01*
X145595238Y-63335771D02*
X145690476Y-63383390D01*
X145690476Y-63383390D02*
X145738095Y-63431009D01*
X145738095Y-63431009D02*
X145785714Y-63526247D01*
X145785714Y-63526247D02*
X145785714Y-63764342D01*
X145785714Y-63764342D02*
X145738095Y-63859580D01*
X145738095Y-63859580D02*
X145690476Y-63907200D01*
X145690476Y-63907200D02*
X145595238Y-63954819D01*
X145595238Y-63954819D02*
X145309524Y-63954819D01*
X145309524Y-63954819D02*
X145214286Y-63907200D01*
X145214286Y-63907200D02*
X145166667Y-63859580D01*
X137738095Y-67954819D02*
X137738095Y-66954819D01*
X137738095Y-67431009D02*
X138309523Y-67431009D01*
X138309523Y-67954819D02*
X138309523Y-66954819D01*
X138738095Y-67050057D02*
X138785714Y-67002438D01*
X138785714Y-67002438D02*
X138880952Y-66954819D01*
X138880952Y-66954819D02*
X139119047Y-66954819D01*
X139119047Y-66954819D02*
X139214285Y-67002438D01*
X139214285Y-67002438D02*
X139261904Y-67050057D01*
X139261904Y-67050057D02*
X139309523Y-67145295D01*
X139309523Y-67145295D02*
X139309523Y-67240533D01*
X139309523Y-67240533D02*
X139261904Y-67383390D01*
X139261904Y-67383390D02*
X138690476Y-67954819D01*
X138690476Y-67954819D02*
X139309523Y-67954819D01*
X149738095Y-48954819D02*
X149738095Y-47954819D01*
X149738095Y-48431009D02*
X150309523Y-48431009D01*
X150309523Y-48954819D02*
X150309523Y-47954819D01*
X151309523Y-48954819D02*
X150738095Y-48954819D01*
X151023809Y-48954819D02*
X151023809Y-47954819D01*
X151023809Y-47954819D02*
X150928571Y-48097676D01*
X150928571Y-48097676D02*
X150833333Y-48192914D01*
X150833333Y-48192914D02*
X150738095Y-48240533D01*
D11*
X143060237Y-59074318D02*
X143060237Y-57804318D01*
X144390714Y-58953365D02*
X144330238Y-59013842D01*
X144330238Y-59013842D02*
X144148809Y-59074318D01*
X144148809Y-59074318D02*
X144027857Y-59074318D01*
X144027857Y-59074318D02*
X143846428Y-59013842D01*
X143846428Y-59013842D02*
X143725476Y-58892889D01*
X143725476Y-58892889D02*
X143664999Y-58771937D01*
X143664999Y-58771937D02*
X143604523Y-58530032D01*
X143604523Y-58530032D02*
X143604523Y-58348603D01*
X143604523Y-58348603D02*
X143664999Y-58106699D01*
X143664999Y-58106699D02*
X143725476Y-57985746D01*
X143725476Y-57985746D02*
X143846428Y-57864794D01*
X143846428Y-57864794D02*
X144027857Y-57804318D01*
X144027857Y-57804318D02*
X144148809Y-57804318D01*
X144148809Y-57804318D02*
X144330238Y-57864794D01*
X144330238Y-57864794D02*
X144390714Y-57925270D01*
X145600238Y-59074318D02*
X144874523Y-59074318D01*
X145237380Y-59074318D02*
X145237380Y-57804318D01*
X145237380Y-57804318D02*
X145116428Y-57985746D01*
X145116428Y-57985746D02*
X144995476Y-58106699D01*
X144995476Y-58106699D02*
X144874523Y-58167175D01*
%TO.C,C2*%
D12*
X145283767Y-55510000D02*
X144991233Y-55510000D01*
X145283767Y-54490000D02*
X144991233Y-54490000D01*
%TO.C,C1*%
X141510000Y-57008767D02*
X141510000Y-56716233D01*
X140490000Y-57008767D02*
X140490000Y-56716233D01*
%TO.C,J1*%
X160150000Y-53070000D02*
X166150000Y-53070000D01*
X166150000Y-53930000D01*
X160150000Y-53930000D01*
X160150000Y-53070000D01*
G36*
X160150000Y-53070000D02*
G01*
X166150000Y-53070000D01*
X166150000Y-53930000D01*
X160150000Y-53930000D01*
X160150000Y-53070000D01*
G37*
X157390000Y-52120000D02*
X160150000Y-52120000D01*
X160150000Y-65040000D01*
X157390000Y-65040000D01*
X157390000Y-52120000D01*
X166150000Y-64090000D02*
X160150000Y-64090000D01*
X166150000Y-63230000D02*
X166150000Y-64090000D01*
X166150000Y-61550000D02*
X160150000Y-61550000D01*
X166150000Y-60690000D02*
X166150000Y-61550000D01*
X166150000Y-59010000D02*
X160150000Y-59010000D01*
X166150000Y-58150000D02*
X166150000Y-59010000D01*
X166150000Y-56470000D02*
X160150000Y-56470000D01*
X166150000Y-55610000D02*
X166150000Y-56470000D01*
X160150000Y-63230000D02*
X166150000Y-63230000D01*
X160150000Y-60690000D02*
X166150000Y-60690000D01*
X160150000Y-58150000D02*
X166150000Y-58150000D01*
X160150000Y-55610000D02*
X166150000Y-55610000D01*
X157390000Y-62390000D02*
X160150000Y-62390000D01*
X157390000Y-59850000D02*
X160150000Y-59850000D01*
X157390000Y-57310000D02*
X160150000Y-57310000D01*
X157390000Y-54770000D02*
X160150000Y-54770000D01*
X157160000Y-53930000D02*
X157390000Y-53930000D01*
X157160000Y-53070000D02*
X157390000Y-53070000D01*
X157077358Y-64090000D02*
X157390000Y-64090000D01*
X157077358Y-63230000D02*
X157390000Y-63230000D01*
X157077358Y-61550000D02*
X157390000Y-61550000D01*
X157077358Y-60690000D02*
X157390000Y-60690000D01*
X157077358Y-59010000D02*
X157390000Y-59010000D01*
X157077358Y-58150000D02*
X157390000Y-58150000D01*
X157077358Y-56470000D02*
X157390000Y-56470000D01*
X157077358Y-55610000D02*
X157390000Y-55610000D01*
X154730000Y-53500000D02*
X154730000Y-52230000D01*
X154730000Y-52230000D02*
X156000000Y-52230000D01*
%TO.C,C4*%
X148510000Y-60508767D02*
X148510000Y-60216233D01*
X147490000Y-60508767D02*
X147490000Y-60216233D01*
%TO.C,C3*%
X145008767Y-62510000D02*
X144716233Y-62510000D01*
X145008767Y-61490000D02*
X144716233Y-61490000D01*
%TO.C,IC1*%
D13*
X142409000Y-57400000D02*
X142409000Y-57400000D01*
X142409000Y-57600000D02*
X142409000Y-57600000D01*
X142409000Y-57600000D02*
G75*
G02*
X142409000Y-57400000I0J100000D01*
G01*
X142409000Y-57400000D02*
G75*
G02*
X142409000Y-57600000I0J-100000D01*
G01*
%TD*%
M02*
