%TF.GenerationSoftware,KiCad,Pcbnew,10.0.6*%
%TF.CreationDate,2026-09-20T16:54:26-05:00*%
%TF.ProjectId,Onboarding-II,4f6e626f-6172-4646-996e-672d49492e6b,rev?*%
%TF.SameCoordinates,Original*%
%TF.FileFunction,Copper,L1,Top*%
%TF.FilePolarity,Positive*%
%FSLAX46Y46*%
G04 Gerber Fmt 4.6, Leading zero omitted, Abs format (unit mm)*
G04 Created by KiCad (PCBNEW 10.0.6) date 2026-09-20 16:54:26*
%MOMM*%
%LPD*%
G01*
G04 APERTURE LIST*
G04 Aperture macros list*
%AMRoundRect*
0 Rectangle with rounded corners*
0 $1 Rounding radius*
0 $2 $3 $4 $5 $6 $7 $8 $9 X,Y pos of 4 corners*
0 Add a 4 corners polygon primitive as box body*
4,1,4,$2,$3,$4,$5,$6,$7,$8,$9,$2,$3,0*
0 Add four circle primitives for the rounded corners*
1,1,$1+$1,$2,$3*
1,1,$1+$1,$4,$5*
1,1,$1+$1,$6,$7*
1,1,$1+$1,$8,$9*
0 Add four rect primitives between the rounded corners*
20,1,$1+$1,$2,$3,$4,$5,0*
20,1,$1+$1,$4,$5,$6,$7,0*
20,1,$1+$1,$6,$7,$8,$9,0*
20,1,$1+$1,$8,$9,$2,$3,0*%
G04 Aperture macros list end*
%TA.AperFunction,SMDPad,CuDef*%
%ADD10RoundRect,0.237500X0.300000X0.237500X-0.300000X0.237500X-0.300000X-0.237500X0.300000X-0.237500X0*%
%TD*%
%TA.AperFunction,SMDPad,CuDef*%
%ADD11RoundRect,0.237500X0.237500X-0.300000X0.237500X0.300000X-0.237500X0.300000X-0.237500X-0.300000X0*%
%TD*%
%TA.AperFunction,ComponentPad*%
%ADD12C,1.700000*%
%TD*%
%TA.AperFunction,ComponentPad*%
%ADD13R,1.700000X1.700000*%
%TD*%
%TA.AperFunction,SMDPad,CuDef*%
%ADD14R,0.500000X0.300000*%
%TD*%
%TA.AperFunction,SMDPad,CuDef*%
%ADD15R,0.300000X0.500000*%
%TD*%
%TA.AperFunction,ViaPad*%
%ADD16C,0.600000*%
%TD*%
%TA.AperFunction,Conductor*%
%ADD17C,0.200000*%
%TD*%
G04 APERTURE END LIST*
D10*
%TO.P,C2,1*%
%TO.N,3.3 VDC*%
X146000000Y-55000000D03*
%TO.P,C2,2*%
%TO.N,GND*%
X144275000Y-55000000D03*
%TD*%
D11*
%TO.P,C1,2*%
%TO.N,GND*%
X141000000Y-56000000D03*
%TO.P,C1,1*%
%TO.N,Net-(IC1-REGOUT)*%
X141000000Y-57725000D03*
%TD*%
D12*
%TO.P,J1,5,Pin_5_5*%
%TO.N,SDA*%
X156000000Y-63660000D03*
%TO.P,J1,4,Pin_4_4*%
%TO.N,SCL*%
X156000000Y-61120000D03*
%TO.P,J1,3,Pin_3_3*%
%TO.N,+5V*%
X156000000Y-58580000D03*
%TO.P,J1,2,Pin_2_2*%
%TO.N,3.3 VDC*%
X156000000Y-56040000D03*
D13*
%TO.P,J1,1,Pin_1_1*%
%TO.N,GND*%
X156000000Y-53500000D03*
%TD*%
D11*
%TO.P,C4,2*%
%TO.N,GND*%
X148000000Y-59500000D03*
%TO.P,C4,1*%
%TO.N,3.3 VDC*%
X148000000Y-61225000D03*
%TD*%
D10*
%TO.P,C3,1*%
%TO.N,3.3 VDC*%
X145725000Y-62000000D03*
%TO.P,C3,2*%
%TO.N,GND*%
X144000000Y-62000000D03*
%TD*%
D14*
%TO.P,IC1,1,VDDIO_1*%
%TO.N,3.3 VDC*%
X143100000Y-57500000D03*
%TO.P,IC1,2,SCL/SPC_2*%
%TO.N,SCL*%
X143100000Y-58000000D03*
%TO.P,IC1,3,SDA/SDI_3*%
%TO.N,SDA*%
X143100000Y-58500000D03*
%TO.P,IC1,4,SA0/SDO_4*%
%TO.N,SA0*%
X143100000Y-59000000D03*
%TO.P,IC1,5,CS_5*%
%TO.N,CS*%
X143100000Y-59500000D03*
D15*
%TO.P,IC1,6,INT_6*%
%TO.N,INT*%
X143800000Y-59700000D03*
%TO.P,IC1,7,RESV_1_7*%
%TO.N,unconnected-(IC1-RESV_1-Pad7)*%
X144300000Y-59700000D03*
%TO.P,IC1,8,FSYNC_8*%
%TO.N,GND*%
X144800000Y-59700000D03*
D14*
%TO.P,IC1,9,RESV_2_9*%
X145500000Y-59500000D03*
%TO.P,IC1,10,RESV_3_10*%
X145500000Y-59000000D03*
%TO.P,IC1,11,RESV_4_11*%
X145500000Y-58500000D03*
%TO.P,IC1,12,RESV_5_12*%
X145500000Y-58000000D03*
%TO.P,IC1,13,GND_13*%
X145500000Y-57500000D03*
D15*
%TO.P,IC1,14,REGOUT_14*%
%TO.N,Net-(IC1-REGOUT)*%
X144800000Y-57300000D03*
%TO.P,IC1,15,RESV_6_15*%
%TO.N,GND*%
X144300000Y-57300000D03*
%TO.P,IC1,16,VDD_16*%
%TO.N,3.3 VDC*%
X143800000Y-57300000D03*
%TD*%
D16*
%TO.N,3.3 VDC*%
X146300003Y-56000000D03*
X143684003Y-56778551D03*
%TO.N,GND*%
X144275000Y-55000000D03*
X143000000Y-55000000D03*
%TO.N,SCL*%
X144493981Y-58048064D03*
%TO.N,SDA*%
X144505216Y-58953057D03*
X153000000Y-64000000D03*
%TO.N,Net-(IC1-REGOUT)*%
X145500000Y-56000000D03*
X143500000Y-56000000D03*
%TD*%
%TO.N,GND*%
D17*
X145300000Y-59700000D02*
X145500000Y-59500000D01*
X144800000Y-59700000D02*
X145300000Y-59700000D01*
%TO.N,3.3 VDC*%
X146300003Y-55300003D02*
X146000000Y-55000000D01*
X146300003Y-56000000D02*
X146300003Y-55300003D01*
X143800000Y-56894548D02*
X143684003Y-56778551D01*
X143800000Y-57300000D02*
X143800000Y-56894548D01*
%TO.N,GND*%
X144300000Y-56700000D02*
X144275000Y-56675000D01*
X144275000Y-56675000D02*
X144275000Y-55000000D01*
X144300000Y-57300000D02*
X144300000Y-56700000D01*
X144275000Y-55000000D02*
X143000000Y-55000000D01*
%TO.N,SCL*%
X144445917Y-58000000D02*
X144493981Y-58048064D01*
X143100000Y-58000000D02*
X144445917Y-58000000D01*
%TO.N,SDA*%
X144052159Y-58500000D02*
X144505216Y-58953057D01*
X143100000Y-58500000D02*
X144052159Y-58500000D01*
X153340000Y-63660000D02*
X156000000Y-63660000D01*
X153000000Y-64000000D02*
X153340000Y-63660000D01*
%TO.N,Net-(IC1-REGOUT)*%
X145500000Y-56600000D02*
X144800000Y-57300000D01*
X145500000Y-56000000D02*
X145500000Y-56600000D01*
X141775000Y-57725000D02*
X143500000Y-56000000D01*
X141000000Y-57725000D02*
X141775000Y-57725000D01*
%TO.N,3.3 VDC*%
X154590000Y-57450000D02*
X156000000Y-56040000D01*
X148450000Y-57450000D02*
X154590000Y-57450000D01*
X146000000Y-55000000D02*
X148450000Y-57450000D01*
X143600000Y-57500000D02*
X143800000Y-57300000D01*
X143100000Y-57500000D02*
X143600000Y-57500000D01*
X142600000Y-57500000D02*
X143100000Y-57500000D01*
X142550000Y-57550000D02*
X142600000Y-57500000D01*
X142850000Y-60250000D02*
X142550000Y-59950000D01*
X143975000Y-60250000D02*
X142850000Y-60250000D01*
X145725000Y-62000000D02*
X143975000Y-60250000D01*
X142550000Y-59950000D02*
X142550000Y-57550000D01*
X146500000Y-61225000D02*
X145725000Y-62000000D01*
X148000000Y-61225000D02*
X146500000Y-61225000D01*
%TO.N,+5V*%
X155920000Y-58500000D02*
X155500000Y-58500000D01*
X156000000Y-58580000D02*
X155920000Y-58500000D01*
%TD*%
%TA.AperFunction,Conductor*%
%TO.N,GND*%
G36*
X154593039Y-52520185D02*
G01*
X154638794Y-52572989D01*
X154650000Y-52624500D01*
X154650000Y-53250000D01*
X155566988Y-53250000D01*
X155534075Y-53307007D01*
X155500000Y-53434174D01*
X155500000Y-53565826D01*
X155534075Y-53692993D01*
X155566988Y-53750000D01*
X154650000Y-53750000D01*
X154650000Y-54397844D01*
X154656401Y-54457372D01*
X154656403Y-54457379D01*
X154706645Y-54592086D01*
X154706649Y-54592093D01*
X154792809Y-54707187D01*
X154792812Y-54707190D01*
X154907906Y-54793350D01*
X154907913Y-54793354D01*
X155039470Y-54842422D01*
X155095404Y-54884293D01*
X155119821Y-54949758D01*
X155104969Y-55018031D01*
X155083819Y-55046285D01*
X154969889Y-55160215D01*
X154844951Y-55332179D01*
X154748444Y-55521585D01*
X154682753Y-55723760D01*
X154649500Y-55933713D01*
X154649500Y-56146286D01*
X154682754Y-56356244D01*
X154682754Y-56356247D01*
X154696491Y-56398523D01*
X154698486Y-56468364D01*
X154666241Y-56524522D01*
X154377582Y-56813182D01*
X154316262Y-56846666D01*
X154289903Y-56849500D01*
X152048444Y-56849500D01*
X151981405Y-56829815D01*
X151935650Y-56777011D01*
X151925706Y-56707853D01*
X151950068Y-56650014D01*
X151977856Y-56613800D01*
X152041936Y-56530289D01*
X152163224Y-56320212D01*
X152256054Y-56096100D01*
X152318838Y-55861789D01*
X152350500Y-55621288D01*
X152350500Y-55378712D01*
X152318838Y-55138211D01*
X152256054Y-54903900D01*
X152163224Y-54679788D01*
X152041936Y-54469711D01*
X151894265Y-54277262D01*
X151894260Y-54277256D01*
X151722743Y-54105739D01*
X151722736Y-54105733D01*
X151530293Y-53958067D01*
X151530292Y-53958066D01*
X151530289Y-53958064D01*
X151320212Y-53836776D01*
X151320205Y-53836773D01*
X151096104Y-53743947D01*
X150906114Y-53693039D01*
X150861789Y-53681162D01*
X150861788Y-53681161D01*
X150861785Y-53681161D01*
X150621289Y-53649500D01*
X150621288Y-53649500D01*
X150378712Y-53649500D01*
X150378711Y-53649500D01*
X150138214Y-53681161D01*
X149903895Y-53743947D01*
X149679794Y-53836773D01*
X149679785Y-53836777D01*
X149469706Y-53958067D01*
X149277263Y-54105733D01*
X149277256Y-54105739D01*
X149105739Y-54277256D01*
X149105733Y-54277263D01*
X148958067Y-54469706D01*
X148836777Y-54679785D01*
X148836773Y-54679794D01*
X148743947Y-54903895D01*
X148681161Y-55138214D01*
X148649500Y-55378711D01*
X148649500Y-55621288D01*
X148681161Y-55861785D01*
X148743947Y-56096104D01*
X148836773Y-56320205D01*
X148836777Y-56320214D01*
X148857579Y-56356244D01*
X148958064Y-56530289D01*
X148958066Y-56530292D01*
X148958067Y-56530293D01*
X149049932Y-56650014D01*
X149075126Y-56715183D01*
X149061088Y-56783628D01*
X149012274Y-56833617D01*
X148951556Y-56849500D01*
X148750097Y-56849500D01*
X148683058Y-56829815D01*
X148662416Y-56813181D01*
X147074318Y-55225083D01*
X147040833Y-55163760D01*
X147037999Y-55137402D01*
X147037999Y-54713330D01*
X147037998Y-54713313D01*
X147027674Y-54612247D01*
X146973408Y-54448484D01*
X146882840Y-54301650D01*
X146760850Y-54179660D01*
X146640999Y-54105735D01*
X146614018Y-54089093D01*
X146614013Y-54089091D01*
X146612569Y-54088612D01*
X146450253Y-54034826D01*
X146450251Y-54034825D01*
X146349178Y-54024500D01*
X145650830Y-54024500D01*
X145650812Y-54024501D01*
X145549747Y-54034825D01*
X145385984Y-54089092D01*
X145385981Y-54089093D01*
X145239148Y-54179661D01*
X145224825Y-54193984D01*
X145163501Y-54227468D01*
X145093809Y-54222482D01*
X145049465Y-54193982D01*
X145035538Y-54180055D01*
X145035534Y-54180052D01*
X144888811Y-54089551D01*
X144888800Y-54089546D01*
X144725152Y-54035319D01*
X144624154Y-54025000D01*
X144525000Y-54025000D01*
X144525000Y-54876000D01*
X144505315Y-54943039D01*
X144452511Y-54988794D01*
X144401000Y-55000000D01*
X144275000Y-55000000D01*
X144275000Y-55126000D01*
X144255315Y-55193039D01*
X144202511Y-55238794D01*
X144151000Y-55250000D01*
X143805811Y-55250000D01*
X143758363Y-55240562D01*
X143733497Y-55230263D01*
X143733490Y-55230261D01*
X143733489Y-55230261D01*
X143733488Y-55230260D01*
X143578845Y-55199500D01*
X143578842Y-55199500D01*
X143421158Y-55199500D01*
X143421155Y-55199500D01*
X143266510Y-55230261D01*
X143266498Y-55230264D01*
X143120827Y-55290602D01*
X143120814Y-55290609D01*
X142989711Y-55378210D01*
X142989707Y-55378213D01*
X142878213Y-55489707D01*
X142878210Y-55489711D01*
X142790609Y-55620814D01*
X142790602Y-55620827D01*
X142730264Y-55766498D01*
X142730261Y-55766508D01*
X142699361Y-55921850D01*
X142666976Y-55983761D01*
X142665425Y-55985339D01*
X142184298Y-56466465D01*
X142122975Y-56499950D01*
X142053283Y-56494966D01*
X141997350Y-56453094D01*
X141972933Y-56387630D01*
X141973260Y-56366176D01*
X141974999Y-56349161D01*
X141975000Y-56349141D01*
X141975000Y-56250000D01*
X140025001Y-56250000D01*
X140025001Y-56349154D01*
X140035319Y-56450152D01*
X140089546Y-56613800D01*
X140089551Y-56613811D01*
X140180052Y-56760534D01*
X140180055Y-56760538D01*
X140193982Y-56774465D01*
X140227467Y-56835788D01*
X140222483Y-56905480D01*
X140193984Y-56949825D01*
X140179661Y-56964148D01*
X140089093Y-57110981D01*
X140089092Y-57110984D01*
X140034826Y-57274747D01*
X140034826Y-57274748D01*
X140034825Y-57274748D01*
X140024500Y-57375815D01*
X140024500Y-58074169D01*
X140024501Y-58074187D01*
X140034825Y-58175252D01*
X140063988Y-58263258D01*
X140089092Y-58339016D01*
X140179660Y-58485850D01*
X140301650Y-58607840D01*
X140448484Y-58698408D01*
X140612247Y-58752674D01*
X140713323Y-58763000D01*
X141286676Y-58762999D01*
X141286684Y-58762998D01*
X141286687Y-58762998D01*
X141342030Y-58757344D01*
X141387753Y-58752674D01*
X141551516Y-58698408D01*
X141698350Y-58607840D01*
X141737819Y-58568371D01*
X141799142Y-58534886D01*
X141868834Y-58539870D01*
X141924767Y-58581742D01*
X141949184Y-58647206D01*
X141949500Y-58656052D01*
X141949500Y-59863330D01*
X141949499Y-59863348D01*
X141949499Y-60029054D01*
X141949498Y-60029054D01*
X141949499Y-60029057D01*
X141990423Y-60181785D01*
X141990424Y-60181787D01*
X141990423Y-60181787D01*
X141996512Y-60192332D01*
X141996513Y-60192333D01*
X142069477Y-60318712D01*
X142069481Y-60318717D01*
X142188349Y-60437585D01*
X142188355Y-60437590D01*
X142365139Y-60614374D01*
X142365149Y-60614385D01*
X142369479Y-60618715D01*
X142369480Y-60618716D01*
X142481284Y-60730520D01*
X142557888Y-60774747D01*
X142618215Y-60809577D01*
X142770943Y-60850500D01*
X143339508Y-60850500D01*
X143406547Y-60870185D01*
X143452302Y-60922989D01*
X143462246Y-60992147D01*
X143433221Y-61055703D01*
X143391910Y-61086884D01*
X143386188Y-61089551D01*
X143239465Y-61180052D01*
X143239461Y-61180055D01*
X143117555Y-61301961D01*
X143117552Y-61301965D01*
X143027051Y-61448688D01*
X143027046Y-61448699D01*
X142972819Y-61612347D01*
X142962500Y-61713345D01*
X142962500Y-61750000D01*
X143876000Y-61750000D01*
X143943039Y-61769685D01*
X143988794Y-61822489D01*
X144000000Y-61874000D01*
X144000000Y-62000000D01*
X144126000Y-62000000D01*
X144193039Y-62019685D01*
X144238794Y-62072489D01*
X144250000Y-62124000D01*
X144250000Y-62974999D01*
X144349140Y-62974999D01*
X144349154Y-62974998D01*
X144450152Y-62964680D01*
X144613800Y-62910453D01*
X144613811Y-62910448D01*
X144760535Y-62819947D01*
X144774460Y-62806021D01*
X144835782Y-62772533D01*
X144905473Y-62777514D01*
X144949827Y-62806017D01*
X144964150Y-62820340D01*
X145110984Y-62910908D01*
X145274747Y-62965174D01*
X145375823Y-62975500D01*
X146074176Y-62975499D01*
X146074184Y-62975498D01*
X146074187Y-62975498D01*
X146129530Y-62969844D01*
X146175253Y-62965174D01*
X146339016Y-62910908D01*
X146485850Y-62820340D01*
X146607840Y-62698350D01*
X146698408Y-62551516D01*
X146752674Y-62387753D01*
X146763000Y-62286677D01*
X146762999Y-61949499D01*
X146782683Y-61882461D01*
X146835487Y-61836706D01*
X146886999Y-61825500D01*
X147011548Y-61825500D01*
X147078587Y-61845185D01*
X147117086Y-61884403D01*
X147179657Y-61985846D01*
X147179660Y-61985850D01*
X147301650Y-62107840D01*
X147448484Y-62198408D01*
X147612247Y-62252674D01*
X147713323Y-62263000D01*
X148286676Y-62262999D01*
X148286684Y-62262998D01*
X148286687Y-62262998D01*
X148342030Y-62257344D01*
X148387753Y-62252674D01*
X148551516Y-62198408D01*
X148698350Y-62107840D01*
X148820340Y-61985850D01*
X148910908Y-61839016D01*
X148965174Y-61675253D01*
X148975500Y-61574177D01*
X148975499Y-60875824D01*
X148968137Y-60803757D01*
X148965174Y-60774746D01*
X148950519Y-60730520D01*
X148910908Y-60610984D01*
X148820340Y-60464150D01*
X148806017Y-60449827D01*
X148772532Y-60388504D01*
X148777516Y-60318812D01*
X148806021Y-60274460D01*
X148819947Y-60260535D01*
X148910448Y-60113811D01*
X148910453Y-60113800D01*
X148964680Y-59950152D01*
X148974999Y-59849154D01*
X148975000Y-59849141D01*
X148975000Y-59750000D01*
X147025001Y-59750000D01*
X147025001Y-59849154D01*
X147035319Y-59950152D01*
X147089546Y-60113800D01*
X147089551Y-60113811D01*
X147180052Y-60260534D01*
X147180055Y-60260538D01*
X147193982Y-60274465D01*
X147227467Y-60335788D01*
X147222483Y-60405480D01*
X147193984Y-60449825D01*
X147179661Y-60464148D01*
X147179657Y-60464153D01*
X147117086Y-60565597D01*
X147065138Y-60612322D01*
X147011548Y-60624500D01*
X146586670Y-60624500D01*
X146586654Y-60624499D01*
X146579058Y-60624499D01*
X146420943Y-60624499D01*
X146344579Y-60644961D01*
X146268214Y-60665423D01*
X146268209Y-60665426D01*
X146131290Y-60744475D01*
X146131282Y-60744481D01*
X145887582Y-60988181D01*
X145826259Y-61021666D01*
X145799901Y-61024500D01*
X145650098Y-61024500D01*
X145583059Y-61004815D01*
X145562417Y-60988181D01*
X145164008Y-60589772D01*
X145130523Y-60528449D01*
X145135507Y-60458757D01*
X145177379Y-60402824D01*
X145191941Y-60393464D01*
X145307187Y-60307190D01*
X145349999Y-60250002D01*
X145350000Y-60249999D01*
X145350000Y-60150000D01*
X145650000Y-60150000D01*
X145797828Y-60150000D01*
X145797844Y-60149999D01*
X145857372Y-60143598D01*
X145857379Y-60143596D01*
X145992086Y-60093354D01*
X145992093Y-60093350D01*
X146107187Y-60007190D01*
X146107190Y-60007187D01*
X146193350Y-59892093D01*
X146193354Y-59892086D01*
X146243596Y-59757379D01*
X146243598Y-59757372D01*
X146249999Y-59697844D01*
X146250000Y-59697827D01*
X146250000Y-59650000D01*
X145650000Y-59650000D01*
X145650000Y-60150000D01*
X145350000Y-60150000D01*
X145350000Y-59850000D01*
X145074499Y-59850000D01*
X145007460Y-59830315D01*
X144961705Y-59777511D01*
X144950499Y-59726000D01*
X144950499Y-59684560D01*
X144970184Y-59617521D01*
X145005608Y-59581458D01*
X145015505Y-59574846D01*
X145015506Y-59574844D01*
X145020572Y-59571460D01*
X145022045Y-59573664D01*
X145075771Y-59550836D01*
X145090147Y-59550000D01*
X145350000Y-59550000D01*
X145350000Y-59350000D01*
X145650000Y-59350000D01*
X146250000Y-59350000D01*
X146250000Y-59302179D01*
X146249999Y-59302168D01*
X146245815Y-59263258D01*
X146245246Y-59244072D01*
X146249708Y-59150845D01*
X147025000Y-59150845D01*
X147025000Y-59250000D01*
X147750000Y-59250000D01*
X148250000Y-59250000D01*
X148974999Y-59250000D01*
X148974999Y-59150860D01*
X148974998Y-59150845D01*
X148964680Y-59049847D01*
X148910453Y-58886199D01*
X148910448Y-58886188D01*
X148819947Y-58739465D01*
X148819944Y-58739461D01*
X148698038Y-58617555D01*
X148698034Y-58617552D01*
X148551311Y-58527051D01*
X148551300Y-58527046D01*
X148387652Y-58472819D01*
X148286654Y-58462500D01*
X148250000Y-58462500D01*
X148250000Y-59250000D01*
X147750000Y-59250000D01*
X147750000Y-58462500D01*
X147713361Y-58462500D01*
X147713343Y-58462501D01*
X147612347Y-58472819D01*
X147448699Y-58527046D01*
X147448688Y-58527051D01*
X147301965Y-58617552D01*
X147301961Y-58617555D01*
X147180055Y-58739461D01*
X147180052Y-58739465D01*
X147089551Y-58886188D01*
X147089546Y-58886199D01*
X147035319Y-59049847D01*
X147025000Y-59150845D01*
X146249708Y-59150845D01*
X146249748Y-59150000D01*
X145650000Y-59150000D01*
X145650000Y-59350000D01*
X145350000Y-59350000D01*
X145350000Y-58850000D01*
X145650000Y-58850000D01*
X146250000Y-58850000D01*
X146250000Y-58802179D01*
X146249999Y-58802168D01*
X146245815Y-58763258D01*
X146245815Y-58736742D01*
X146249999Y-58697831D01*
X146250000Y-58697821D01*
X146250000Y-58650000D01*
X145650000Y-58650000D01*
X145650000Y-58850000D01*
X145350000Y-58850000D01*
X145350000Y-58350000D01*
X145650000Y-58350000D01*
X146250000Y-58350000D01*
X146250000Y-58302179D01*
X146249999Y-58302168D01*
X146245815Y-58263258D01*
X146245815Y-58236742D01*
X146249999Y-58197831D01*
X146250000Y-58197821D01*
X146250000Y-58150000D01*
X145650000Y-58150000D01*
X145650000Y-58350000D01*
X145350000Y-58350000D01*
X145350000Y-57892106D01*
X145369685Y-57825067D01*
X145374734Y-57817794D01*
X145377286Y-57814385D01*
X145393796Y-57792331D01*
X145393797Y-57792327D01*
X145393798Y-57792327D01*
X145409818Y-57749375D01*
X145451689Y-57693441D01*
X145517153Y-57669023D01*
X145585426Y-57683874D01*
X145634832Y-57733279D01*
X145650000Y-57792707D01*
X145650000Y-57850000D01*
X146250000Y-57850000D01*
X146250000Y-57802179D01*
X146249999Y-57802168D01*
X146245815Y-57763258D01*
X146245815Y-57736742D01*
X146249999Y-57697831D01*
X146250000Y-57697821D01*
X146250000Y-57650000D01*
X145624000Y-57650000D01*
X145556961Y-57630315D01*
X145511206Y-57577511D01*
X145500000Y-57526000D01*
X145500000Y-57500596D01*
X145519685Y-57433557D01*
X145536319Y-57412915D01*
X145562915Y-57386319D01*
X145624238Y-57352834D01*
X145650596Y-57350000D01*
X146250000Y-57350000D01*
X146250000Y-57302172D01*
X146249999Y-57302155D01*
X146243598Y-57242627D01*
X146243596Y-57242620D01*
X146193354Y-57107913D01*
X146193352Y-57107910D01*
X146111352Y-56998373D01*
X146086934Y-56932909D01*
X146101785Y-56864635D01*
X146151190Y-56815230D01*
X146215069Y-56801332D01*
X146215069Y-56800500D01*
X146218898Y-56800500D01*
X146219463Y-56800377D01*
X146220909Y-56800500D01*
X146221161Y-56800500D01*
X146378847Y-56800500D01*
X146378848Y-56800499D01*
X146533500Y-56769737D01*
X146679182Y-56709394D01*
X146703055Y-56693441D01*
X146769729Y-56672563D01*
X146837110Y-56691046D01*
X146859627Y-56708862D01*
X147965139Y-57814374D01*
X147965149Y-57814385D01*
X147969479Y-57818715D01*
X147969480Y-57818716D01*
X148081284Y-57930520D01*
X148167886Y-57980519D01*
X148218215Y-58009577D01*
X148370942Y-58050500D01*
X148370943Y-58050500D01*
X154503331Y-58050500D01*
X154503347Y-58050501D01*
X154581374Y-58050501D01*
X154648413Y-58070186D01*
X154694168Y-58122990D01*
X154704112Y-58192148D01*
X154699305Y-58212819D01*
X154682753Y-58263759D01*
X154669094Y-58350000D01*
X154649500Y-58473713D01*
X154649500Y-58686287D01*
X154651420Y-58698407D01*
X154667855Y-58802179D01*
X154682754Y-58896243D01*
X154732663Y-59049847D01*
X154748444Y-59098414D01*
X154844951Y-59287820D01*
X154969890Y-59459786D01*
X155120213Y-59610109D01*
X155292182Y-59735050D01*
X155300946Y-59739516D01*
X155351742Y-59787491D01*
X155368536Y-59855312D01*
X155345998Y-59921447D01*
X155300946Y-59960484D01*
X155292182Y-59964949D01*
X155120213Y-60089890D01*
X154969890Y-60240213D01*
X154844951Y-60412179D01*
X154748444Y-60601585D01*
X154682753Y-60803760D01*
X154666893Y-60903900D01*
X154649500Y-61013713D01*
X154649500Y-61226287D01*
X154682754Y-61436243D01*
X154686801Y-61448699D01*
X154748444Y-61638414D01*
X154844951Y-61827820D01*
X154969890Y-61999786D01*
X155120213Y-62150109D01*
X155292182Y-62275050D01*
X155300946Y-62279516D01*
X155351742Y-62327491D01*
X155368536Y-62395312D01*
X155345998Y-62461447D01*
X155300946Y-62500484D01*
X155292182Y-62504949D01*
X155120213Y-62629890D01*
X154969890Y-62780213D01*
X154844948Y-62952184D01*
X154844947Y-62952185D01*
X154824765Y-62991795D01*
X154776791Y-63042591D01*
X154714281Y-63059500D01*
X153426670Y-63059500D01*
X153426654Y-63059499D01*
X153419058Y-63059499D01*
X153260943Y-63059499D01*
X153184579Y-63079961D01*
X153108214Y-63100423D01*
X153108209Y-63100426D01*
X152964245Y-63183543D01*
X152963094Y-63181550D01*
X152925248Y-63198685D01*
X152766508Y-63230261D01*
X152766498Y-63230264D01*
X152620827Y-63290602D01*
X152620814Y-63290609D01*
X152489711Y-63378210D01*
X152489707Y-63378213D01*
X152378213Y-63489707D01*
X152378210Y-63489711D01*
X152290609Y-63620814D01*
X152290602Y-63620827D01*
X152230264Y-63766498D01*
X152230261Y-63766510D01*
X152199500Y-63921153D01*
X152199500Y-64078846D01*
X152230261Y-64233489D01*
X152230263Y-64233497D01*
X152269427Y-64328047D01*
X152276896Y-64397517D01*
X152245621Y-64459996D01*
X152185532Y-64495648D01*
X152154866Y-64499500D01*
X135124500Y-64499500D01*
X135057461Y-64479815D01*
X135011706Y-64427011D01*
X135000500Y-64375500D01*
X135000500Y-61378711D01*
X136149500Y-61378711D01*
X136149500Y-61621288D01*
X136178163Y-61839013D01*
X136181162Y-61861789D01*
X136204664Y-61949500D01*
X136243947Y-62096104D01*
X136336773Y-62320205D01*
X136336777Y-62320214D01*
X136358974Y-62358661D01*
X136458064Y-62530289D01*
X136458066Y-62530292D01*
X136458067Y-62530293D01*
X136605733Y-62722736D01*
X136605739Y-62722743D01*
X136777256Y-62894260D01*
X136777263Y-62894266D01*
X136882477Y-62974999D01*
X136969711Y-63041936D01*
X137179788Y-63163224D01*
X137403900Y-63256054D01*
X137638211Y-63318838D01*
X137818586Y-63342584D01*
X137878711Y-63350500D01*
X137878712Y-63350500D01*
X138121289Y-63350500D01*
X138169388Y-63344167D01*
X138361789Y-63318838D01*
X138596100Y-63256054D01*
X138820212Y-63163224D01*
X139030289Y-63041936D01*
X139222738Y-62894265D01*
X139394265Y-62722738D01*
X139541936Y-62530289D01*
X139663224Y-62320212D01*
X139677124Y-62286654D01*
X142962501Y-62286654D01*
X142972819Y-62387652D01*
X143027046Y-62551300D01*
X143027051Y-62551311D01*
X143117552Y-62698034D01*
X143117555Y-62698038D01*
X143239461Y-62819944D01*
X143239465Y-62819947D01*
X143386188Y-62910448D01*
X143386199Y-62910453D01*
X143549847Y-62964680D01*
X143650851Y-62974999D01*
X143750000Y-62974998D01*
X143750000Y-62250000D01*
X142962501Y-62250000D01*
X142962501Y-62286654D01*
X139677124Y-62286654D01*
X139756054Y-62096100D01*
X139818838Y-61861789D01*
X139850500Y-61621288D01*
X139850500Y-61378712D01*
X139818838Y-61138211D01*
X139756054Y-60903900D01*
X139663224Y-60679788D01*
X139541936Y-60469711D01*
X139444063Y-60342160D01*
X139394266Y-60277263D01*
X139394260Y-60277256D01*
X139222743Y-60105739D01*
X139222736Y-60105733D01*
X139030293Y-59958067D01*
X139030292Y-59958066D01*
X139030289Y-59958064D01*
X138820212Y-59836776D01*
X138820205Y-59836773D01*
X138596104Y-59743947D01*
X138478944Y-59712554D01*
X138361789Y-59681162D01*
X138361788Y-59681161D01*
X138361785Y-59681161D01*
X138121289Y-59649500D01*
X138121288Y-59649500D01*
X137878712Y-59649500D01*
X137878711Y-59649500D01*
X137638214Y-59681161D01*
X137403895Y-59743947D01*
X137179794Y-59836773D01*
X137179785Y-59836777D01*
X136969706Y-59958067D01*
X136777263Y-60105733D01*
X136777256Y-60105739D01*
X136605739Y-60277256D01*
X136605733Y-60277263D01*
X136458067Y-60469706D01*
X136336777Y-60679785D01*
X136336773Y-60679794D01*
X136243947Y-60903895D01*
X136181161Y-61138214D01*
X136149500Y-61378711D01*
X135000500Y-61378711D01*
X135000500Y-55650845D01*
X140025000Y-55650845D01*
X140025000Y-55750000D01*
X140750000Y-55750000D01*
X141250000Y-55750000D01*
X141974999Y-55750000D01*
X141974999Y-55650860D01*
X141974998Y-55650845D01*
X141964680Y-55549847D01*
X141910453Y-55386199D01*
X141910448Y-55386188D01*
X141819947Y-55239465D01*
X141819944Y-55239461D01*
X141698038Y-55117555D01*
X141698034Y-55117552D01*
X141551311Y-55027051D01*
X141551300Y-55027046D01*
X141387652Y-54972819D01*
X141286654Y-54962500D01*
X141250000Y-54962500D01*
X141250000Y-55750000D01*
X140750000Y-55750000D01*
X140750000Y-54962500D01*
X140713361Y-54962500D01*
X140713343Y-54962501D01*
X140612347Y-54972819D01*
X140448699Y-55027046D01*
X140448688Y-55027051D01*
X140301965Y-55117552D01*
X140301961Y-55117555D01*
X140180055Y-55239461D01*
X140180052Y-55239465D01*
X140089551Y-55386188D01*
X140089546Y-55386199D01*
X140035319Y-55549847D01*
X140025000Y-55650845D01*
X135000500Y-55650845D01*
X135000500Y-54713345D01*
X143237500Y-54713345D01*
X143237500Y-54750000D01*
X144025000Y-54750000D01*
X144025000Y-54024999D01*
X143925860Y-54025000D01*
X143925844Y-54025001D01*
X143824847Y-54035319D01*
X143661199Y-54089546D01*
X143661188Y-54089551D01*
X143514465Y-54180052D01*
X143514461Y-54180055D01*
X143392555Y-54301961D01*
X143392552Y-54301965D01*
X143302051Y-54448688D01*
X143302046Y-54448699D01*
X143247819Y-54612347D01*
X143237500Y-54713345D01*
X135000500Y-54713345D01*
X135000500Y-52624500D01*
X135020185Y-52557461D01*
X135072989Y-52511706D01*
X135124500Y-52500500D01*
X154526000Y-52500500D01*
X154593039Y-52520185D01*
G37*
%TD.AperFunction*%
%TA.AperFunction,Conductor*%
G36*
X144644119Y-55994684D02*
G01*
X144689874Y-56047488D01*
X144698697Y-56074808D01*
X144730261Y-56233489D01*
X144730264Y-56233501D01*
X144782617Y-56359893D01*
X144790086Y-56429362D01*
X144758811Y-56491841D01*
X144755737Y-56495026D01*
X144737582Y-56513181D01*
X144676259Y-56546666D01*
X144649903Y-56549500D01*
X144602132Y-56549500D01*
X144602116Y-56549501D01*
X144560904Y-56553931D01*
X144534393Y-56553930D01*
X144526974Y-56553132D01*
X144462424Y-56526391D01*
X144425674Y-56477295D01*
X144393400Y-56399378D01*
X144393393Y-56399365D01*
X144302408Y-56263197D01*
X144304355Y-56261895D01*
X144281099Y-56207161D01*
X144282645Y-56168600D01*
X144300500Y-56078842D01*
X144301303Y-56074806D01*
X144333689Y-56012895D01*
X144394405Y-55978322D01*
X144422920Y-55974999D01*
X144577080Y-55974999D01*
X144644119Y-55994684D01*
G37*
%TD.AperFunction*%
%TD*%
M02*
