%TF.GenerationSoftware,KiCad,Pcbnew,10.0.6*%
%TF.CreationDate,2026-09-20T19:04:13-05:00*%
%TF.ProjectId,Onboarding-II,4f6e626f-6172-4646-996e-672d49492e6b,rev?*%
%TF.SameCoordinates,Original*%
%TF.FileFunction,Copper,L1,Top*%
%TF.FilePolarity,Positive*%
%FSLAX46Y46*%
G04 Gerber Fmt 4.6, Leading zero omitted, Abs format (unit mm)*
G04 Created by KiCad (PCBNEW 10.0.6) date 2026-09-20 19:04:13*
%MOMM*%
%LPD*%
G01*
G04 APERTURE LIST*
G04 Aperture macros list*
%AMRoundRect*
0 Rectangle with rounded corners*
0 $1 Rounding radius*
0 $2 $3 $4 $5 $6 $7 $8 $9 X,Y pos of 4 corners*
0 Add a 4 corners polygon primitive as box body*
4,1,4,$2,$3,$4,$5,$6,$7,$8,$9,$2,$3,0*
0 Add four circle primitives for the rounded corners*
1,1,$1+$1,$2,$3*
1,1,$1+$1,$4,$5*
1,1,$1+$1,$6,$7*
1,1,$1+$1,$8,$9*
0 Add four rect primitives between the rounded corners*
20,1,$1+$1,$2,$3,$4,$5,0*
20,1,$1+$1,$4,$5,$6,$7,0*
20,1,$1+$1,$6,$7,$8,$9,0*
20,1,$1+$1,$8,$9,$2,$3,0*%
G04 Aperture macros list end*
%TA.AperFunction,SMDPad,CuDef*%
%ADD10RoundRect,0.150000X0.512500X0.150000X-0.512500X0.150000X-0.512500X-0.150000X0.512500X-0.150000X0*%
%TD*%
%TA.AperFunction,SMDPad,CuDef*%
%ADD11RoundRect,0.062500X-0.127500X-0.062500X0.127500X-0.062500X0.127500X0.062500X-0.127500X0.062500X0*%
%TD*%
%TA.AperFunction,SMDPad,CuDef*%
%ADD12RoundRect,0.125000X-0.125000X-0.125000X0.125000X-0.125000X0.125000X0.125000X-0.125000X0.125000X0*%
%TD*%
%TA.AperFunction,SMDPad,CuDef*%
%ADD13RoundRect,0.062500X0.062500X-0.127500X0.062500X0.127500X-0.062500X0.127500X-0.062500X-0.127500X0*%
%TD*%
%TA.AperFunction,SMDPad,CuDef*%
%ADD14RoundRect,0.125000X0.125000X-0.125000X0.125000X0.125000X-0.125000X0.125000X-0.125000X-0.125000X0*%
%TD*%
%TA.AperFunction,SMDPad,CuDef*%
%ADD15RoundRect,0.150000X-0.512500X-0.150000X0.512500X-0.150000X0.512500X0.150000X-0.512500X0.150000X0*%
%TD*%
%TA.AperFunction,ViaPad*%
%ADD16C,0.600000*%
%TD*%
%TA.AperFunction,Conductor*%
%ADD17C,0.200000*%
%TD*%
G04 APERTURE END LIST*
D10*
%TO.P,C2,1*%
%TO.N,+2.8V*%
X102750000Y-97400000D03*
%TO.P,C2,2*%
%TO.N,GND*%
X102750000Y-96450000D03*
%TO.P,C2,3*%
%TO.N,N/C*%
X102750000Y-95500000D03*
%TO.P,C2,4*%
X100475000Y-95500000D03*
%TO.P,C2,5*%
X100475000Y-96450000D03*
%TO.P,C2,6*%
X100475000Y-97400000D03*
%TD*%
D11*
%TO.P,U1,1,AVDDVCSEL_1*%
%TO.N,+2.8V*%
X106060000Y-93025000D03*
D12*
X106200000Y-92900000D03*
%TO.P,U1,2,AVSSVCSEL_2*%
%TO.N,GND*%
X107000000Y-92900000D03*
%TO.P,U1,3,GND_3*%
X107800000Y-92900000D03*
%TO.P,U1,4,GND_4*%
X108600000Y-92900000D03*
%TO.P,U1,5,XSHUT_5*%
%TO.N,unconnected-(U1-XSHUT-Pad5)*%
X109400000Y-92900000D03*
%TO.P,U1,6,GND_6*%
%TO.N,GND*%
X109400000Y-93700000D03*
%TO.P,U1,7,GPIO1_7*%
%TO.N,unconnected-(U1-GPIO1-Pad7)*%
X109400000Y-94500000D03*
%TO.P,U1,8,DNC_8*%
%TO.N,unconnected-(U1-DNC-Pad8)*%
X108600000Y-94500000D03*
%TO.P,U1,9,SDA_9*%
%TO.N,SDA*%
X107800000Y-94500000D03*
%TO.P,U1,10,SCL_10*%
%TO.N,SCL*%
X107000000Y-94500000D03*
%TO.P,U1,11,AVDD_11*%
%TO.N,+2.8V*%
X106200000Y-94500000D03*
%TO.P,U1,12,GND_12*%
%TO.N,GND*%
X106200000Y-93700000D03*
%TD*%
D13*
%TO.P,J1,1,Pin_1_1*%
%TO.N,+3.3V*%
X111875000Y-95490000D03*
D14*
X111750000Y-95350000D03*
%TO.P,J1,2,Pin_2_2*%
%TO.N,+5V*%
X111750000Y-94550000D03*
%TO.P,J1,3,Pin_3_3*%
%TO.N,SDA*%
X111750000Y-93750000D03*
%TO.P,J1,4,Pin_4_4*%
%TO.N,SCL*%
X111750000Y-92950000D03*
%TO.P,J1,5,Pin_5_5*%
%TO.N,GND*%
X111750000Y-92150000D03*
%TO.P,J1,6*%
%TO.N,N/C*%
X112550000Y-92150000D03*
%TO.P,J1,7*%
X113350000Y-92150000D03*
%TO.P,J1,8*%
X113350000Y-92950000D03*
%TO.P,J1,9*%
X113350000Y-93750000D03*
%TO.P,J1,10*%
X113350000Y-94550000D03*
%TO.P,J1,11*%
X113350000Y-95350000D03*
%TO.P,J1,12*%
X112550000Y-95350000D03*
%TD*%
D15*
%TO.P,C1,1*%
%TO.N,+2.8V*%
X101475000Y-91250000D03*
%TO.P,C1,2*%
%TO.N,GND*%
X101475000Y-92200000D03*
%TO.P,C1,3*%
%TO.N,N/C*%
X101475000Y-93150000D03*
%TO.P,C1,4*%
X103750000Y-93150000D03*
%TO.P,C1,5*%
X103750000Y-92200000D03*
%TO.P,C1,6*%
X103750000Y-91250000D03*
%TD*%
D16*
%TO.N,GND*%
X102750000Y-96450000D03*
X101475000Y-92200000D03*
%TO.N,SCL*%
X107071963Y-94205830D03*
X111750000Y-92950000D03*
%TO.N,GND*%
X106250000Y-93726388D03*
%TD*%
%TO.N,+2.8V*%
D17*
X103412499Y-97400000D02*
X106200000Y-94612499D01*
X102750000Y-97400000D02*
X103412499Y-97400000D01*
%TO.N,SCL*%
X107000000Y-94500000D02*
X107000000Y-94277793D01*
X107000000Y-94277793D02*
X107071963Y-94205830D01*
%TO.N,SDA*%
X107800000Y-94500000D02*
X107800000Y-94554506D01*
X110200001Y-95050000D02*
X111500001Y-93750000D01*
X107800000Y-94554506D02*
X108295494Y-95050000D01*
X108295494Y-95050000D02*
X110200001Y-95050000D01*
X111500001Y-93750000D02*
X111750000Y-93750000D01*
%TO.N,GND*%
X107000000Y-92900000D02*
X108600000Y-92900000D01*
X106250000Y-93726388D02*
X107000000Y-92976388D01*
X107000000Y-92976388D02*
X107000000Y-92900000D01*
X109400000Y-93700000D02*
X110145494Y-93700000D01*
X110145494Y-93700000D02*
X111695494Y-92150000D01*
X111695494Y-92150000D02*
X111750000Y-92150000D01*
X108600000Y-92900000D02*
X108600000Y-93149999D01*
X108600000Y-93149999D02*
X109150001Y-93700000D01*
X109150001Y-93700000D02*
X109400000Y-93700000D01*
X106223612Y-93700000D02*
X106250000Y-93726388D01*
X106200000Y-93700000D02*
X106223612Y-93700000D01*
%TO.N,+2.8V*%
X106060000Y-93025000D02*
X105870001Y-93025000D01*
X105870001Y-93025000D02*
X105650000Y-93245001D01*
X105650000Y-94199999D02*
X105950001Y-94500000D01*
X105950001Y-94500000D02*
X106200000Y-94500000D01*
X105650000Y-93245001D02*
X105650000Y-94199999D01*
X106200000Y-94612499D02*
X106200000Y-94500000D01*
X106200000Y-92200000D02*
X104250000Y-90250000D01*
X106200000Y-92900000D02*
X106200000Y-92200000D01*
X102475000Y-90250000D02*
X101475000Y-91250000D01*
X104250000Y-90250000D02*
X102475000Y-90250000D01*
%TD*%
M02*
