%TF.GenerationSoftware,KiCad,Pcbnew,9.0.4*%
%TF.CreationDate,2026-10-04T16:42:56-05:00*%
%TF.ProjectId,Project,50726f6a-6563-4742-9e6b-696361645f70,rev?*%
%TF.SameCoordinates,Original*%
%TF.FileFunction,Copper,L1,Top*%
%TF.FilePolarity,Positive*%
%FSLAX46Y46*%
G04 Gerber Fmt 4.6, Leading zero omitted, Abs format (unit mm)*
G04 Created by KiCad (PCBNEW 9.0.4) date 2026-10-04 16:42:56*
%MOMM*%
%LPD*%
G01*
G04 APERTURE LIST*
G04 Aperture macros list*
%AMRoundRect*
0 Rectangle with rounded corners*
0 $1 Rounding radius*
0 $2 $3 $4 $5 $6 $7 $8 $9 X,Y pos of 4 corners*
0 Add a 4 corners polygon primitive as box body*
4,1,4,$2,$3,$4,$5,$6,$7,$8,$9,$2,$3,0*
0 Add four circle primitives for the rounded corners*
1,1,$1+$1,$2,$3*
1,1,$1+$1,$4,$5*
1,1,$1+$1,$6,$7*
1,1,$1+$1,$8,$9*
0 Add four rect primitives between the rounded corners*
20,1,$1+$1,$2,$3,$4,$5,0*
20,1,$1+$1,$4,$5,$6,$7,0*
20,1,$1+$1,$6,$7,$8,$9,0*
20,1,$1+$1,$8,$9,$2,$3,0*%
G04 Aperture macros list end*
%TA.AperFunction,SMDPad,CuDef*%
%ADD10RoundRect,0.225000X-0.250000X0.225000X-0.250000X-0.225000X0.250000X-0.225000X0.250000X0.225000X0*%
%TD*%
%TA.AperFunction,SMDPad,CuDef*%
%ADD11RoundRect,0.087500X-0.187500X-0.087500X0.187500X-0.087500X0.187500X0.087500X-0.187500X0.087500X0*%
%TD*%
%TA.AperFunction,SMDPad,CuDef*%
%ADD12RoundRect,0.087500X-0.087500X-0.187500X0.087500X-0.187500X0.087500X0.187500X-0.087500X0.187500X0*%
%TD*%
%TA.AperFunction,ComponentPad*%
%ADD13R,1.700000X1.700000*%
%TD*%
%TA.AperFunction,ComponentPad*%
%ADD14C,1.700000*%
%TD*%
%TA.AperFunction,ViaPad*%
%ADD15C,0.600000*%
%TD*%
%TA.AperFunction,Conductor*%
%ADD16C,0.200000*%
%TD*%
G04 APERTURE END LIST*
D10*
%TO.P,C3,1*%
%TO.N,+3.3V*%
X133310000Y-99140000D03*
%TO.P,C3,2*%
%TO.N,GND*%
X133310000Y-100690000D03*
%TD*%
D11*
%TO.P,U1,1,VDDIO*%
%TO.N,+3.3V*%
X137615000Y-102195000D03*
%TO.P,U1,2,SCL/SPC*%
%TO.N,SLC{slash}SPC*%
X137615000Y-102695000D03*
%TO.P,U1,3,SDA/SDI*%
%TO.N,SDA{slash}SDI*%
X137615000Y-103195000D03*
%TO.P,U1,4,SAO/SD0*%
%TO.N,SA0{slash}SDO*%
X137615000Y-103695000D03*
%TO.P,U1,5,~{CS}*%
%TO.N,+3.3V*%
X137615000Y-104195000D03*
D12*
%TO.P,U1,6,INT*%
%TO.N,INT*%
X138340000Y-104420000D03*
%TO.P,U1,7,RESV*%
%TO.N,unconnected-(U1-RESV-Pad7)*%
X138840000Y-104420000D03*
%TO.P,U1,8,FSYNC*%
%TO.N,GND*%
X139340000Y-104420000D03*
D11*
%TO.P,U1,9,GND*%
X140065000Y-104195000D03*
%TO.P,U1,10,GND*%
X140065000Y-103695000D03*
%TO.P,U1,11,GND*%
X140065000Y-103195000D03*
%TO.P,U1,12,GND*%
X140065000Y-102695000D03*
%TO.P,U1,13,GND*%
X140065000Y-102195000D03*
D12*
%TO.P,U1,14,REGOUT*%
%TO.N,Net-(U1-REGOUT)*%
X139340000Y-101970000D03*
%TO.P,U1,15,GND*%
%TO.N,GND*%
X138840000Y-101970000D03*
%TO.P,U1,16,VDD*%
%TO.N,+3.3V*%
X138340000Y-101970000D03*
%TD*%
D10*
%TO.P,C4,1*%
%TO.N,+3.3V*%
X141850000Y-94240000D03*
%TO.P,C4,2*%
%TO.N,GND*%
X141850000Y-95790000D03*
%TD*%
%TO.P,C1,1*%
%TO.N,Net-(U1-REGOUT)*%
X142960000Y-102080000D03*
%TO.P,C1,2*%
%TO.N,GND*%
X142960000Y-103630000D03*
%TD*%
D13*
%TO.P,J1,1,Pin_1*%
%TO.N,SLC{slash}SPC*%
X124040000Y-105370000D03*
D14*
%TO.P,J1,2,Pin_2*%
%TO.N,SDA{slash}SDI*%
X124040000Y-102830000D03*
%TO.P,J1,3,Pin_3*%
%TO.N,+3.3V*%
X124040000Y-100290000D03*
%TO.P,J1,4,Pin_4*%
%TO.N,+5V*%
X124040000Y-97750000D03*
%TO.P,J1,5,Pin_5*%
%TO.N,GND*%
X124040000Y-95210000D03*
%TD*%
D10*
%TO.P,C2,1*%
%TO.N,+3.3V*%
X137650000Y-94360000D03*
%TO.P,C2,2*%
%TO.N,GND*%
X137650000Y-95910000D03*
%TD*%
D15*
%TO.N,GND*%
X131680000Y-98090000D03*
X131660000Y-100150000D03*
%TO.N,SDA{slash}SDI*%
X135850000Y-103595000D03*
X126450000Y-103660000D03*
%TO.N,SLC{slash}SPC*%
X128810000Y-102710000D03*
X135710000Y-102710000D03*
%TD*%
D16*
%TO.N,Net-(U1-REGOUT)*%
X142960000Y-102080000D02*
X142960000Y-100970000D01*
X142960000Y-100970000D02*
X142950000Y-100960000D01*
X139340000Y-100960000D02*
X139340000Y-101970000D01*
X139380000Y-100960000D02*
X139360000Y-100940000D01*
X142950000Y-100960000D02*
X139380000Y-100960000D01*
X139360000Y-100940000D02*
X139340000Y-100960000D01*
%TO.N,GND*%
X140065000Y-104195000D02*
X139565000Y-104195000D01*
X146040000Y-95950000D02*
X146040000Y-99640000D01*
X146040000Y-99640000D02*
X146040000Y-103970000D01*
X140065000Y-104195000D02*
X140065000Y-103695000D01*
X145940000Y-95790000D02*
X146070000Y-95920000D01*
X145960000Y-95810000D02*
X146070000Y-95920000D01*
X142960000Y-103630000D02*
X142960000Y-104690000D01*
X138840000Y-100270000D02*
X139470000Y-99640000D01*
X140065000Y-102695000D02*
X140065000Y-103195000D01*
X145770000Y-103970000D02*
X145430000Y-103630000D01*
X139470000Y-99640000D02*
X146040000Y-99640000D01*
X131680000Y-98090000D02*
X131750000Y-98020000D01*
X145430000Y-103630000D02*
X142960000Y-103630000D01*
X133310000Y-100690000D02*
X132200000Y-100690000D01*
X142960000Y-104690000D02*
X139610000Y-104690000D01*
X131750000Y-92520000D02*
X145960000Y-92520000D01*
X139565000Y-104195000D02*
X139340000Y-104420000D01*
X131750000Y-98020000D02*
X131750000Y-92520000D01*
X126730000Y-92520000D02*
X131750000Y-92520000D01*
X146040000Y-103970000D02*
X145770000Y-103970000D01*
X140065000Y-102195000D02*
X140065000Y-102695000D01*
X140065000Y-103695000D02*
X140065000Y-103195000D01*
X137770000Y-95790000D02*
X137650000Y-95910000D01*
X145960000Y-92520000D02*
X145960000Y-95810000D01*
X124040000Y-95210000D02*
X126730000Y-92520000D01*
X138840000Y-101970000D02*
X138840000Y-100270000D01*
X146070000Y-95920000D02*
X146040000Y-95950000D01*
X132200000Y-100690000D02*
X131660000Y-100150000D01*
X141850000Y-95790000D02*
X145940000Y-95790000D01*
X141850000Y-95790000D02*
X137770000Y-95790000D01*
X139610000Y-104690000D02*
X139340000Y-104420000D01*
%TO.N,+3.3V*%
X137650000Y-94360000D02*
X141730000Y-94360000D01*
X130630000Y-104195000D02*
X137615000Y-104195000D01*
X125190000Y-99140000D02*
X130630000Y-99140000D01*
X133310000Y-98700000D02*
X137650000Y-94360000D01*
X133310000Y-99140000D02*
X135510000Y-99140000D01*
X141730000Y-94360000D02*
X141850000Y-94240000D01*
X133310000Y-99140000D02*
X133310000Y-98700000D01*
X130630000Y-99140000D02*
X133310000Y-99140000D01*
X124040000Y-100290000D02*
X125190000Y-99140000D01*
X137840000Y-101970000D02*
X137615000Y-102195000D01*
X130630000Y-99140000D02*
X130630000Y-104195000D01*
X138340000Y-101970000D02*
X137840000Y-101970000D01*
X135510000Y-99140000D02*
X138340000Y-101970000D01*
%TO.N,SDA{slash}SDI*%
X126450000Y-103660000D02*
X125620000Y-102830000D01*
X136250000Y-103195000D02*
X135850000Y-103595000D01*
X137615000Y-103195000D02*
X136250000Y-103195000D01*
X125620000Y-102830000D02*
X124040000Y-102830000D01*
%TO.N,SLC{slash}SPC*%
X128810000Y-102710000D02*
X128790000Y-102710000D01*
X137615000Y-102695000D02*
X135725000Y-102695000D01*
X135725000Y-102695000D02*
X135710000Y-102710000D01*
X126130000Y-105370000D02*
X124040000Y-105370000D01*
X128790000Y-102710000D02*
X126130000Y-105370000D01*
%TD*%
%TA.AperFunction,Conductor*%
%TO.N,GND*%
G36*
X132373682Y-99741582D02*
G01*
X132377428Y-99740723D01*
X132406944Y-99751349D01*
X132437035Y-99760185D01*
X132440067Y-99763274D01*
X132443167Y-99764390D01*
X132468407Y-99789060D01*
X132472232Y-99794049D01*
X132487032Y-99818044D01*
X132502427Y-99833439D01*
X132507390Y-99839913D01*
X132517153Y-99865203D01*
X132530145Y-99888995D01*
X132529550Y-99897313D01*
X132532554Y-99905094D01*
X132527094Y-99931646D01*
X132525161Y-99958687D01*
X132520162Y-99965364D01*
X132518483Y-99973532D01*
X132496663Y-100003031D01*
X132487428Y-100012265D01*
X132487424Y-100012271D01*
X132398457Y-100156507D01*
X132398452Y-100156518D01*
X132345144Y-100317393D01*
X132335000Y-100416677D01*
X132335000Y-100440000D01*
X134284999Y-100440000D01*
X134284999Y-100416692D01*
X134284998Y-100416677D01*
X134274855Y-100317392D01*
X134221547Y-100156518D01*
X134221542Y-100156507D01*
X134132575Y-100012271D01*
X134132572Y-100012267D01*
X134123339Y-100003034D01*
X134122985Y-100002386D01*
X134122341Y-100002025D01*
X134106253Y-99971745D01*
X134089854Y-99941711D01*
X134089906Y-99940975D01*
X134089560Y-99940323D01*
X134092393Y-99906198D01*
X134094838Y-99872019D01*
X134095301Y-99871181D01*
X134095342Y-99870693D01*
X134096880Y-99868329D01*
X134112610Y-99839912D01*
X134117569Y-99833442D01*
X134132968Y-99818044D01*
X134147767Y-99794050D01*
X134151594Y-99789059D01*
X134174922Y-99772008D01*
X134196412Y-99752679D01*
X134203605Y-99751044D01*
X134208003Y-99747830D01*
X134221248Y-99747034D01*
X134250004Y-99740500D01*
X135209903Y-99740500D01*
X135276942Y-99760185D01*
X135297584Y-99776819D01*
X137021750Y-101500985D01*
X137055235Y-101562308D01*
X137050251Y-101632000D01*
X137013372Y-101681878D01*
X137013880Y-101682386D01*
X137010494Y-101685771D01*
X137009556Y-101687041D01*
X137008133Y-101688132D01*
X136913882Y-101810963D01*
X136854636Y-101953997D01*
X136854635Y-101954001D01*
X136850332Y-101986686D01*
X136822065Y-102050582D01*
X136763741Y-102089053D01*
X136727393Y-102094500D01*
X136267317Y-102094500D01*
X136200278Y-102074815D01*
X136198426Y-102073602D01*
X136089185Y-102000609D01*
X136089172Y-102000602D01*
X135943501Y-101940264D01*
X135943489Y-101940261D01*
X135788845Y-101909500D01*
X135788842Y-101909500D01*
X135631158Y-101909500D01*
X135631155Y-101909500D01*
X135476510Y-101940261D01*
X135476498Y-101940264D01*
X135330827Y-102000602D01*
X135330814Y-102000609D01*
X135199711Y-102088210D01*
X135199707Y-102088213D01*
X135088213Y-102199707D01*
X135088210Y-102199711D01*
X135000609Y-102330814D01*
X135000602Y-102330827D01*
X134940264Y-102476498D01*
X134940261Y-102476510D01*
X134909500Y-102631153D01*
X134909500Y-102788846D01*
X134940261Y-102943489D01*
X134940264Y-102943501D01*
X135000602Y-103089172D01*
X135000609Y-103089185D01*
X135082590Y-103211877D01*
X135103468Y-103278554D01*
X135099800Y-103310785D01*
X135097572Y-103319713D01*
X135080263Y-103361503D01*
X135053190Y-103497606D01*
X135052464Y-103500517D01*
X135036248Y-103528185D01*
X135021384Y-103556603D01*
X135018698Y-103558132D01*
X135017137Y-103560797D01*
X134988546Y-103575302D01*
X134960668Y-103591177D01*
X134956237Y-103591693D01*
X134954827Y-103592409D01*
X134952304Y-103592151D01*
X134932152Y-103594500D01*
X131354500Y-103594500D01*
X131287461Y-103574815D01*
X131241706Y-103522011D01*
X131230500Y-103470500D01*
X131230500Y-100963322D01*
X132335001Y-100963322D01*
X132345144Y-101062607D01*
X132398452Y-101223481D01*
X132398457Y-101223492D01*
X132487424Y-101367728D01*
X132487427Y-101367732D01*
X132607267Y-101487572D01*
X132607271Y-101487575D01*
X132751507Y-101576542D01*
X132751518Y-101576547D01*
X132912393Y-101629855D01*
X133011683Y-101639999D01*
X133560000Y-101639999D01*
X133608308Y-101639999D01*
X133608322Y-101639998D01*
X133707607Y-101629855D01*
X133868481Y-101576547D01*
X133868492Y-101576542D01*
X134012728Y-101487575D01*
X134012732Y-101487572D01*
X134132572Y-101367732D01*
X134132575Y-101367728D01*
X134221542Y-101223492D01*
X134221547Y-101223481D01*
X134274855Y-101062606D01*
X134284999Y-100963322D01*
X134285000Y-100963309D01*
X134285000Y-100940000D01*
X133560000Y-100940000D01*
X133560000Y-101639999D01*
X133011683Y-101639999D01*
X133059999Y-101639998D01*
X133060000Y-101639998D01*
X133060000Y-100940000D01*
X132335001Y-100940000D01*
X132335001Y-100963322D01*
X131230500Y-100963322D01*
X131230500Y-99864500D01*
X131250185Y-99797461D01*
X131302989Y-99751706D01*
X131354500Y-99740500D01*
X132369996Y-99740500D01*
X132373682Y-99741582D01*
G37*
%TD.AperFunction*%
%TA.AperFunction,Conductor*%
G36*
X147723039Y-90109685D02*
G01*
X147768794Y-90162489D01*
X147780000Y-90214000D01*
X147780000Y-108496793D01*
X147760315Y-108563832D01*
X147707511Y-108609587D01*
X147656796Y-108620790D01*
X119763810Y-108799847D01*
X119717828Y-108791324D01*
X119588587Y-108740751D01*
X119533330Y-108697991D01*
X119509963Y-108632144D01*
X119509773Y-108625610D01*
X119504657Y-106720499D01*
X119492310Y-102122179D01*
X119480284Y-97643713D01*
X122689500Y-97643713D01*
X122689500Y-97856287D01*
X122722754Y-98066243D01*
X122783434Y-98252997D01*
X122788444Y-98268414D01*
X122884951Y-98457820D01*
X123009890Y-98629786D01*
X123160213Y-98780109D01*
X123332182Y-98905050D01*
X123340946Y-98909516D01*
X123391742Y-98957491D01*
X123408536Y-99025312D01*
X123385998Y-99091447D01*
X123340946Y-99130484D01*
X123332182Y-99134949D01*
X123160213Y-99259890D01*
X123009890Y-99410213D01*
X122884951Y-99582179D01*
X122788444Y-99771585D01*
X122788443Y-99771587D01*
X122788443Y-99771588D01*
X122757010Y-99868329D01*
X122722753Y-99973760D01*
X122693809Y-100156507D01*
X122689500Y-100183713D01*
X122689500Y-100396287D01*
X122692732Y-100416692D01*
X122721968Y-100601284D01*
X122722754Y-100606243D01*
X122770084Y-100751910D01*
X122788444Y-100808414D01*
X122884951Y-100997820D01*
X123009890Y-101169786D01*
X123160213Y-101320109D01*
X123332182Y-101445050D01*
X123340946Y-101449516D01*
X123391742Y-101497491D01*
X123408536Y-101565312D01*
X123385998Y-101631447D01*
X123340946Y-101670484D01*
X123332182Y-101674949D01*
X123160213Y-101799890D01*
X123009890Y-101950213D01*
X122884951Y-102122179D01*
X122788444Y-102311585D01*
X122722753Y-102513760D01*
X122694177Y-102694184D01*
X122689500Y-102723713D01*
X122689500Y-102936287D01*
X122692031Y-102952265D01*
X122714876Y-103096507D01*
X122722754Y-103146243D01*
X122783656Y-103333680D01*
X122788444Y-103348414D01*
X122884951Y-103537820D01*
X123009890Y-103709786D01*
X123123430Y-103823326D01*
X123156915Y-103884649D01*
X123151931Y-103954341D01*
X123110059Y-104010274D01*
X123079083Y-104027189D01*
X122947669Y-104076203D01*
X122947664Y-104076206D01*
X122832455Y-104162452D01*
X122832452Y-104162455D01*
X122746206Y-104277664D01*
X122746202Y-104277671D01*
X122695908Y-104412517D01*
X122690369Y-104464040D01*
X122689501Y-104472123D01*
X122689500Y-104472135D01*
X122689500Y-106267870D01*
X122689501Y-106267876D01*
X122695908Y-106327483D01*
X122746202Y-106462328D01*
X122746206Y-106462335D01*
X122832452Y-106577544D01*
X122832455Y-106577547D01*
X122947664Y-106663793D01*
X122947671Y-106663797D01*
X123082517Y-106714091D01*
X123082516Y-106714091D01*
X123089444Y-106714835D01*
X123142127Y-106720500D01*
X124937872Y-106720499D01*
X124997483Y-106714091D01*
X125132331Y-106663796D01*
X125247546Y-106577546D01*
X125333796Y-106462331D01*
X125384091Y-106327483D01*
X125390500Y-106267873D01*
X125390500Y-106094500D01*
X125410185Y-106027461D01*
X125462989Y-105981706D01*
X125514500Y-105970500D01*
X126043331Y-105970500D01*
X126043347Y-105970501D01*
X126050943Y-105970501D01*
X126209054Y-105970501D01*
X126209057Y-105970501D01*
X126361785Y-105929577D01*
X126411904Y-105900639D01*
X126498716Y-105850520D01*
X126610520Y-105738716D01*
X126610520Y-105738714D01*
X126620728Y-105728507D01*
X126620729Y-105728504D01*
X128802416Y-103546819D01*
X128863739Y-103513334D01*
X128882800Y-103511284D01*
X128882782Y-103511097D01*
X128888836Y-103510500D01*
X128888842Y-103510500D01*
X129043497Y-103479737D01*
X129189179Y-103419394D01*
X129320289Y-103331789D01*
X129431789Y-103220289D01*
X129519394Y-103089179D01*
X129579737Y-102943497D01*
X129610500Y-102788842D01*
X129610500Y-102631158D01*
X129610500Y-102631155D01*
X129610499Y-102631153D01*
X129587147Y-102513757D01*
X129579737Y-102476503D01*
X129569881Y-102452708D01*
X129519397Y-102330827D01*
X129519390Y-102330814D01*
X129431789Y-102199711D01*
X129431786Y-102199707D01*
X129320292Y-102088213D01*
X129320288Y-102088210D01*
X129189185Y-102000609D01*
X129189172Y-102000602D01*
X129043501Y-101940264D01*
X129043489Y-101940261D01*
X128888845Y-101909500D01*
X128888842Y-101909500D01*
X128731158Y-101909500D01*
X128731155Y-101909500D01*
X128576510Y-101940261D01*
X128576498Y-101940264D01*
X128430827Y-102000602D01*
X128430814Y-102000609D01*
X128299711Y-102088210D01*
X128299707Y-102088213D01*
X128188213Y-102199707D01*
X128188210Y-102199711D01*
X128100609Y-102330814D01*
X128100602Y-102330827D01*
X128040264Y-102476498D01*
X128040261Y-102476509D01*
X128014327Y-102606883D01*
X127981941Y-102668794D01*
X127980391Y-102670372D01*
X127350568Y-103300195D01*
X127289245Y-103333680D01*
X127219553Y-103328696D01*
X127163620Y-103286824D01*
X127159785Y-103281405D01*
X127071789Y-103149711D01*
X127071786Y-103149707D01*
X126960292Y-103038213D01*
X126960288Y-103038210D01*
X126829185Y-102950609D01*
X126829172Y-102950602D01*
X126683501Y-102890264D01*
X126683491Y-102890261D01*
X126528149Y-102859361D01*
X126466238Y-102826976D01*
X126464660Y-102825425D01*
X126107590Y-102468355D01*
X126107588Y-102468352D01*
X125988717Y-102349481D01*
X125988716Y-102349480D01*
X125894926Y-102295331D01*
X125894925Y-102295330D01*
X125851783Y-102270422D01*
X125795881Y-102255443D01*
X125699057Y-102229499D01*
X125540943Y-102229499D01*
X125533347Y-102229499D01*
X125533331Y-102229500D01*
X125325719Y-102229500D01*
X125258680Y-102209815D01*
X125215235Y-102161795D01*
X125195052Y-102122185D01*
X125195051Y-102122184D01*
X125070109Y-101950213D01*
X124919786Y-101799890D01*
X124747820Y-101674951D01*
X124747115Y-101674591D01*
X124739054Y-101670485D01*
X124688259Y-101622512D01*
X124671463Y-101554692D01*
X124693999Y-101488556D01*
X124739054Y-101449515D01*
X124747816Y-101445051D01*
X124769789Y-101429086D01*
X124919786Y-101320109D01*
X124919788Y-101320106D01*
X124919792Y-101320104D01*
X125070104Y-101169792D01*
X125070106Y-101169788D01*
X125070109Y-101169786D01*
X125195048Y-100997820D01*
X125195047Y-100997820D01*
X125195051Y-100997816D01*
X125291557Y-100808412D01*
X125357246Y-100606243D01*
X125390500Y-100396287D01*
X125390500Y-100183713D01*
X125357246Y-99973757D01*
X125343507Y-99931476D01*
X125343072Y-99916262D01*
X125337754Y-99902000D01*
X125342094Y-99882049D01*
X125341511Y-99861637D01*
X125349601Y-99847547D01*
X125352608Y-99833727D01*
X125373757Y-99805477D01*
X125390861Y-99788373D01*
X125402420Y-99776816D01*
X125463744Y-99743333D01*
X125490098Y-99740500D01*
X129905500Y-99740500D01*
X129972539Y-99760185D01*
X130018294Y-99812989D01*
X130029500Y-99864500D01*
X130029500Y-104274057D01*
X130069516Y-104423397D01*
X130070423Y-104426783D01*
X130070426Y-104426790D01*
X130149475Y-104563709D01*
X130149479Y-104563714D01*
X130149480Y-104563716D01*
X130261284Y-104675520D01*
X130261286Y-104675521D01*
X130261290Y-104675524D01*
X130389968Y-104749815D01*
X130398216Y-104754577D01*
X130550943Y-104795500D01*
X130709057Y-104795500D01*
X137104809Y-104795500D01*
X137152260Y-104804938D01*
X137274001Y-104855365D01*
X137383140Y-104869733D01*
X137385154Y-104869999D01*
X137388960Y-104870500D01*
X137651999Y-104870500D01*
X137719038Y-104890185D01*
X137750375Y-104919014D01*
X137833133Y-105026867D01*
X137955963Y-105121117D01*
X137955962Y-105121117D01*
X138024003Y-105149300D01*
X138099001Y-105180365D01*
X138213960Y-105195500D01*
X138213967Y-105195500D01*
X138466033Y-105195500D01*
X138466040Y-105195500D01*
X138573821Y-105181310D01*
X138606179Y-105181310D01*
X138713960Y-105195500D01*
X138713967Y-105195500D01*
X138966033Y-105195500D01*
X138966040Y-105195500D01*
X139080999Y-105180365D01*
X139224037Y-105121117D01*
X139315517Y-105050922D01*
X139380682Y-105025730D01*
X139449127Y-105039768D01*
X139499117Y-105088582D01*
X139515000Y-105149300D01*
X139515000Y-105188548D01*
X139580869Y-105179878D01*
X139723781Y-105120682D01*
X139846510Y-105026509D01*
X139889999Y-104969835D01*
X139890000Y-104969832D01*
X139890000Y-104869999D01*
X140240000Y-104869999D01*
X140291013Y-104869999D01*
X140405859Y-104854881D01*
X140405871Y-104854877D01*
X140548780Y-104795683D01*
X140548786Y-104795680D01*
X140671509Y-104701510D01*
X140671510Y-104701509D01*
X140765680Y-104578786D01*
X140765683Y-104578780D01*
X140824878Y-104435868D01*
X140833551Y-104370000D01*
X140240000Y-104370000D01*
X140240000Y-104869999D01*
X139890000Y-104869999D01*
X139890000Y-104595000D01*
X139639500Y-104595000D01*
X139630814Y-104592449D01*
X139621853Y-104593738D01*
X139597812Y-104582759D01*
X139572461Y-104575315D01*
X139566533Y-104568474D01*
X139558297Y-104564713D01*
X139544007Y-104542478D01*
X139526706Y-104522511D01*
X139524418Y-104511996D01*
X139520523Y-104505935D01*
X139515500Y-104471000D01*
X139515500Y-104369000D01*
X139535185Y-104301961D01*
X139587989Y-104256206D01*
X139639500Y-104245000D01*
X139890000Y-104245000D01*
X139890000Y-104020000D01*
X140240000Y-104020000D01*
X140833549Y-104020000D01*
X140833549Y-104019999D01*
X140825807Y-103961186D01*
X140825567Y-103930753D01*
X140828740Y-103903322D01*
X141985001Y-103903322D01*
X141995144Y-104002607D01*
X142048452Y-104163481D01*
X142048457Y-104163492D01*
X142137424Y-104307728D01*
X142137427Y-104307732D01*
X142257267Y-104427572D01*
X142257271Y-104427575D01*
X142401507Y-104516542D01*
X142401518Y-104516547D01*
X142562393Y-104569855D01*
X142661683Y-104579999D01*
X143210000Y-104579999D01*
X143258308Y-104579999D01*
X143258322Y-104579998D01*
X143357607Y-104569855D01*
X143518481Y-104516547D01*
X143518492Y-104516542D01*
X143662728Y-104427575D01*
X143662732Y-104427572D01*
X143782572Y-104307732D01*
X143782575Y-104307728D01*
X143871542Y-104163492D01*
X143871547Y-104163481D01*
X143924855Y-104002606D01*
X143934999Y-103903322D01*
X143935000Y-103903309D01*
X143935000Y-103880000D01*
X143210000Y-103880000D01*
X143210000Y-104579999D01*
X142661683Y-104579999D01*
X142709999Y-104579998D01*
X142710000Y-104579998D01*
X142710000Y-103880000D01*
X141985001Y-103880000D01*
X141985001Y-103903322D01*
X140828740Y-103903322D01*
X140832594Y-103870000D01*
X140240000Y-103870000D01*
X140240000Y-104020000D01*
X139890000Y-104020000D01*
X139890000Y-103520000D01*
X140240000Y-103520000D01*
X140833549Y-103520000D01*
X140833549Y-103519999D01*
X140825807Y-103461186D01*
X140825807Y-103428814D01*
X140833551Y-103370000D01*
X140240000Y-103370000D01*
X140240000Y-103520000D01*
X139890000Y-103520000D01*
X139890000Y-103370000D01*
X139296451Y-103370000D01*
X139296449Y-103370001D01*
X139304192Y-103428815D01*
X139304192Y-103461184D01*
X139293576Y-103541823D01*
X139265310Y-103605719D01*
X139206986Y-103644191D01*
X139186820Y-103648578D01*
X139108092Y-103658941D01*
X139075724Y-103658940D01*
X138966050Y-103644501D01*
X138966045Y-103644500D01*
X138966040Y-103644500D01*
X138713960Y-103644500D01*
X138713952Y-103644500D01*
X138606186Y-103658689D01*
X138573814Y-103658689D01*
X138493621Y-103648131D01*
X138429725Y-103619864D01*
X138391254Y-103561540D01*
X138386869Y-103541385D01*
X138376310Y-103461178D01*
X138376310Y-103428821D01*
X138390500Y-103321040D01*
X138390500Y-103068960D01*
X138376310Y-102961178D01*
X138376310Y-102928821D01*
X138386869Y-102848618D01*
X138415135Y-102784725D01*
X138473459Y-102746254D01*
X138493614Y-102741869D01*
X138575728Y-102731059D01*
X138608096Y-102731059D01*
X138664999Y-102738549D01*
X138680124Y-102725284D01*
X138684685Y-102709754D01*
X138688460Y-102705689D01*
X138689565Y-102702708D01*
X138699148Y-102694184D01*
X138714465Y-102677695D01*
X138722197Y-102671878D01*
X138724037Y-102671117D01*
X138764962Y-102639713D01*
X138765465Y-102639336D01*
X138797602Y-102627265D01*
X138829682Y-102614864D01*
X138830290Y-102614988D01*
X138830873Y-102614770D01*
X138864491Y-102622003D01*
X138898127Y-102628902D01*
X138898918Y-102629410D01*
X138899180Y-102629467D01*
X138899496Y-102629782D01*
X138915480Y-102640053D01*
X138955963Y-102671117D01*
X138955964Y-102671117D01*
X138962412Y-102676065D01*
X138961044Y-102677847D01*
X139001208Y-102719959D01*
X139003209Y-102728208D01*
X139015000Y-102738548D01*
X139071903Y-102731058D01*
X139104265Y-102731058D01*
X139186893Y-102741936D01*
X139250788Y-102770203D01*
X139289258Y-102828528D01*
X139293644Y-102848691D01*
X139304192Y-102928817D01*
X139304192Y-102961187D01*
X139296448Y-103019999D01*
X139296449Y-103020000D01*
X139890000Y-103020000D01*
X140240000Y-103020000D01*
X140833549Y-103020000D01*
X140833549Y-103019999D01*
X140825807Y-102961186D01*
X140825807Y-102928814D01*
X140833551Y-102870000D01*
X140240000Y-102870000D01*
X140240000Y-103020000D01*
X139890000Y-103020000D01*
X139890000Y-102562745D01*
X139909685Y-102495706D01*
X139915603Y-102487286D01*
X139941117Y-102454037D01*
X139966275Y-102393300D01*
X140240000Y-102393300D01*
X140240000Y-102520000D01*
X140833549Y-102520000D01*
X140833549Y-102519999D01*
X140825807Y-102461186D01*
X140825807Y-102428814D01*
X140833551Y-102370000D01*
X140255483Y-102370000D01*
X140240000Y-102393300D01*
X139966275Y-102393300D01*
X140000365Y-102310999D01*
X140000365Y-102310998D01*
X140001439Y-102308406D01*
X140012722Y-102287231D01*
X140065000Y-102208557D01*
X140065000Y-102144000D01*
X140084685Y-102076961D01*
X140137489Y-102031206D01*
X140189000Y-102020000D01*
X140833549Y-102020000D01*
X140833550Y-102019998D01*
X140824881Y-101954140D01*
X140824877Y-101954128D01*
X140765683Y-101811219D01*
X140765680Y-101811213D01*
X140726372Y-101759987D01*
X140701177Y-101694818D01*
X140715215Y-101626373D01*
X140764028Y-101576383D01*
X140824747Y-101560500D01*
X141872721Y-101560500D01*
X141939760Y-101580185D01*
X141985515Y-101632989D01*
X141995228Y-101700546D01*
X141995339Y-101700558D01*
X141995293Y-101700999D01*
X141995459Y-101702147D01*
X141994800Y-101705831D01*
X141984500Y-101806647D01*
X141984500Y-102353337D01*
X141984501Y-102353355D01*
X141994650Y-102452707D01*
X141994651Y-102452710D01*
X142047996Y-102613694D01*
X142048001Y-102613705D01*
X142137029Y-102758040D01*
X142137032Y-102758044D01*
X142146660Y-102767672D01*
X142180145Y-102828995D01*
X142175161Y-102898687D01*
X142146663Y-102943031D01*
X142137428Y-102952265D01*
X142137424Y-102952271D01*
X142048457Y-103096507D01*
X142048452Y-103096518D01*
X141995144Y-103257393D01*
X141985000Y-103356677D01*
X141985000Y-103380000D01*
X143934999Y-103380000D01*
X143934999Y-103356692D01*
X143934998Y-103356677D01*
X143924855Y-103257392D01*
X143871547Y-103096518D01*
X143871542Y-103096507D01*
X143782575Y-102952271D01*
X143782572Y-102952267D01*
X143773339Y-102943034D01*
X143739854Y-102881711D01*
X143744838Y-102812019D01*
X143773343Y-102767668D01*
X143782968Y-102758044D01*
X143872003Y-102613697D01*
X143925349Y-102452708D01*
X143935500Y-102353345D01*
X143935499Y-101806656D01*
X143934808Y-101799896D01*
X143925349Y-101707292D01*
X143925348Y-101707289D01*
X143919000Y-101688132D01*
X143872003Y-101546303D01*
X143871999Y-101546297D01*
X143871998Y-101546294D01*
X143782970Y-101401959D01*
X143782969Y-101401958D01*
X143782968Y-101401956D01*
X143663044Y-101282032D01*
X143663043Y-101282031D01*
X143663042Y-101282030D01*
X143619402Y-101255112D01*
X143572678Y-101203163D01*
X143560500Y-101149574D01*
X143560500Y-100890945D01*
X143560500Y-100890943D01*
X143519577Y-100738216D01*
X143519577Y-100738215D01*
X143473678Y-100658716D01*
X143440520Y-100601284D01*
X143328716Y-100489480D01*
X143318716Y-100479480D01*
X143318713Y-100479478D01*
X143318709Y-100479475D01*
X143199106Y-100410423D01*
X143199106Y-100410422D01*
X143199101Y-100410421D01*
X143193058Y-100406932D01*
X143181786Y-100400423D01*
X143143603Y-100390192D01*
X143029057Y-100359499D01*
X142870943Y-100359499D01*
X142863347Y-100359499D01*
X142863331Y-100359500D01*
X139530027Y-100359500D01*
X139497934Y-100355275D01*
X139472573Y-100348479D01*
X139439057Y-100339499D01*
X139280943Y-100339499D01*
X139168980Y-100369500D01*
X139168979Y-100369499D01*
X139128216Y-100380422D01*
X139128215Y-100380422D01*
X138991281Y-100459482D01*
X138859481Y-100591282D01*
X138859479Y-100591285D01*
X138850846Y-100606239D01*
X138820549Y-100658716D01*
X138809361Y-100678094D01*
X138809359Y-100678096D01*
X138780425Y-100728209D01*
X138780424Y-100728210D01*
X138780423Y-100728215D01*
X138739499Y-100880943D01*
X138739499Y-100880945D01*
X138739499Y-101049046D01*
X138739500Y-101049059D01*
X138739500Y-101082896D01*
X138719815Y-101149935D01*
X138667011Y-101195690D01*
X138631681Y-101205836D01*
X138608090Y-101208941D01*
X138575724Y-101208940D01*
X138466050Y-101194501D01*
X138466045Y-101194500D01*
X138466040Y-101194500D01*
X138466033Y-101194500D01*
X138465097Y-101194500D01*
X138464827Y-101194420D01*
X138461990Y-101194235D01*
X138462031Y-101193599D01*
X138398058Y-101174815D01*
X138377416Y-101158181D01*
X135997590Y-98778355D01*
X135997588Y-98778352D01*
X135878717Y-98659481D01*
X135878716Y-98659480D01*
X135786610Y-98606303D01*
X135786609Y-98606302D01*
X135741790Y-98580425D01*
X135741787Y-98580423D01*
X135680693Y-98564053D01*
X135589057Y-98539499D01*
X135430943Y-98539499D01*
X135423347Y-98539499D01*
X135423331Y-98539500D01*
X134619097Y-98539500D01*
X134552058Y-98519815D01*
X134506303Y-98467011D01*
X134496359Y-98397853D01*
X134525384Y-98334297D01*
X134531416Y-98327819D01*
X135002949Y-97856286D01*
X136515984Y-96343249D01*
X136577305Y-96309766D01*
X136646996Y-96314750D01*
X136702930Y-96356622D01*
X136721369Y-96391927D01*
X136738453Y-96443483D01*
X136738457Y-96443492D01*
X136827424Y-96587728D01*
X136827427Y-96587732D01*
X136947267Y-96707572D01*
X136947271Y-96707575D01*
X137091507Y-96796542D01*
X137091518Y-96796547D01*
X137252393Y-96849855D01*
X137351683Y-96859999D01*
X137900000Y-96859999D01*
X137948308Y-96859999D01*
X137948322Y-96859998D01*
X138047607Y-96849855D01*
X138208481Y-96796547D01*
X138208492Y-96796542D01*
X138352728Y-96707575D01*
X138352732Y-96707572D01*
X138472572Y-96587732D01*
X138472575Y-96587728D01*
X138561542Y-96443492D01*
X138561547Y-96443481D01*
X138614855Y-96282606D01*
X138624999Y-96183322D01*
X138625000Y-96183309D01*
X138625000Y-96160000D01*
X137900000Y-96160000D01*
X137900000Y-96859999D01*
X137351683Y-96859999D01*
X137399999Y-96859998D01*
X137400000Y-96859998D01*
X137400000Y-96063322D01*
X140875001Y-96063322D01*
X140885144Y-96162607D01*
X140938452Y-96323481D01*
X140938457Y-96323492D01*
X141027424Y-96467728D01*
X141027427Y-96467732D01*
X141147267Y-96587572D01*
X141147271Y-96587575D01*
X141291507Y-96676542D01*
X141291518Y-96676547D01*
X141452393Y-96729855D01*
X141551683Y-96739999D01*
X142100000Y-96739999D01*
X142148308Y-96739999D01*
X142148322Y-96739998D01*
X142247607Y-96729855D01*
X142408481Y-96676547D01*
X142408492Y-96676542D01*
X142552728Y-96587575D01*
X142552732Y-96587572D01*
X142672572Y-96467732D01*
X142672575Y-96467728D01*
X142761542Y-96323492D01*
X142761547Y-96323481D01*
X142814855Y-96162606D01*
X142824999Y-96063322D01*
X142825000Y-96063309D01*
X142825000Y-96040000D01*
X142100000Y-96040000D01*
X142100000Y-96739999D01*
X141551683Y-96739999D01*
X141599999Y-96739998D01*
X141600000Y-96739998D01*
X141600000Y-96040000D01*
X140875001Y-96040000D01*
X140875001Y-96063322D01*
X137400000Y-96063322D01*
X137400000Y-96034000D01*
X137419685Y-95966961D01*
X137472489Y-95921206D01*
X137524000Y-95910000D01*
X137650000Y-95910000D01*
X137650000Y-95784000D01*
X137669685Y-95716961D01*
X137722489Y-95671206D01*
X137774000Y-95660000D01*
X138624999Y-95660000D01*
X138624999Y-95636692D01*
X138624998Y-95636677D01*
X138614855Y-95537392D01*
X138561547Y-95376518D01*
X138561542Y-95376507D01*
X138472575Y-95232271D01*
X138472572Y-95232267D01*
X138463339Y-95223034D01*
X138462985Y-95222386D01*
X138462341Y-95222025D01*
X138446253Y-95191745D01*
X138429854Y-95161711D01*
X138429906Y-95160975D01*
X138429560Y-95160323D01*
X138432393Y-95126198D01*
X138434838Y-95092019D01*
X138435301Y-95091181D01*
X138435342Y-95090693D01*
X138436880Y-95088329D01*
X138452610Y-95059912D01*
X138457569Y-95053442D01*
X138472968Y-95038044D01*
X138487767Y-95014050D01*
X138491594Y-95009059D01*
X138514922Y-94992008D01*
X138536412Y-94972679D01*
X138543605Y-94971044D01*
X138548003Y-94967830D01*
X138561248Y-94967034D01*
X138590004Y-94960500D01*
X140898863Y-94960500D01*
X140965902Y-94980185D01*
X141011657Y-95032989D01*
X141021601Y-95102147D01*
X141004402Y-95149597D01*
X140938454Y-95256513D01*
X140938452Y-95256518D01*
X140885144Y-95417393D01*
X140875000Y-95516677D01*
X140875000Y-95540000D01*
X142824999Y-95540000D01*
X142824999Y-95516692D01*
X142824998Y-95516677D01*
X142814855Y-95417392D01*
X142761547Y-95256518D01*
X142761542Y-95256507D01*
X142672575Y-95112271D01*
X142672572Y-95112267D01*
X142663339Y-95103034D01*
X142629854Y-95041711D01*
X142634838Y-94972019D01*
X142663343Y-94927668D01*
X142672968Y-94918044D01*
X142762003Y-94773697D01*
X142815349Y-94612708D01*
X142825500Y-94513345D01*
X142825499Y-93966656D01*
X142815349Y-93867292D01*
X142762003Y-93706303D01*
X142761999Y-93706297D01*
X142761998Y-93706294D01*
X142672970Y-93561959D01*
X142672967Y-93561955D01*
X142553044Y-93442032D01*
X142553040Y-93442029D01*
X142408705Y-93353001D01*
X142408699Y-93352998D01*
X142408697Y-93352997D01*
X142408694Y-93352996D01*
X142247709Y-93299651D01*
X142148346Y-93289500D01*
X141551662Y-93289500D01*
X141551644Y-93289501D01*
X141452292Y-93299650D01*
X141452289Y-93299651D01*
X141291305Y-93352996D01*
X141291294Y-93353001D01*
X141146959Y-93442029D01*
X141146955Y-93442032D01*
X141027031Y-93561956D01*
X140941515Y-93700598D01*
X140889567Y-93747322D01*
X140835977Y-93759500D01*
X138590004Y-93759500D01*
X138522965Y-93739815D01*
X138484465Y-93700596D01*
X138472968Y-93681956D01*
X138353044Y-93562032D01*
X138353040Y-93562029D01*
X138208705Y-93473001D01*
X138208699Y-93472998D01*
X138208697Y-93472997D01*
X138208694Y-93472996D01*
X138047709Y-93419651D01*
X137948346Y-93409500D01*
X137351662Y-93409500D01*
X137351644Y-93409501D01*
X137252292Y-93419650D01*
X137252289Y-93419651D01*
X137091305Y-93472996D01*
X137091294Y-93473001D01*
X136946959Y-93562029D01*
X136946955Y-93562032D01*
X136827032Y-93681955D01*
X136827029Y-93681959D01*
X136738001Y-93826294D01*
X136737996Y-93826305D01*
X136684651Y-93987290D01*
X136674500Y-94086647D01*
X136674500Y-94434902D01*
X136654815Y-94501941D01*
X136638181Y-94522583D01*
X132997861Y-98162902D01*
X132936538Y-98196387D01*
X132922784Y-98198579D01*
X132912290Y-98199651D01*
X132751305Y-98252996D01*
X132751294Y-98253001D01*
X132606959Y-98342029D01*
X132606955Y-98342032D01*
X132487031Y-98461956D01*
X132475535Y-98480596D01*
X132423588Y-98527321D01*
X132369996Y-98539500D01*
X125355781Y-98539500D01*
X125288742Y-98519815D01*
X125242987Y-98467011D01*
X125233043Y-98397853D01*
X125245296Y-98359205D01*
X125261288Y-98327819D01*
X125291557Y-98268412D01*
X125357246Y-98066243D01*
X125390500Y-97856287D01*
X125390500Y-97643713D01*
X125357246Y-97433757D01*
X125291557Y-97231588D01*
X125195051Y-97042184D01*
X125195049Y-97042181D01*
X125195048Y-97042179D01*
X125070109Y-96870213D01*
X124919786Y-96719890D01*
X124747817Y-96594949D01*
X124738504Y-96590204D01*
X124687707Y-96542230D01*
X124670912Y-96474409D01*
X124693449Y-96408274D01*
X124738507Y-96369232D01*
X124747555Y-96364622D01*
X124801716Y-96325270D01*
X124801717Y-96325270D01*
X124169408Y-95692962D01*
X124232993Y-95675925D01*
X124347007Y-95610099D01*
X124440099Y-95517007D01*
X124505925Y-95402993D01*
X124522962Y-95339408D01*
X125155270Y-95971717D01*
X125155270Y-95971716D01*
X125194622Y-95917554D01*
X125291095Y-95728217D01*
X125356757Y-95526130D01*
X125356757Y-95526127D01*
X125390000Y-95316246D01*
X125390000Y-95103753D01*
X125356757Y-94893872D01*
X125356757Y-94893869D01*
X125291095Y-94691782D01*
X125194624Y-94502449D01*
X125155270Y-94448282D01*
X125155269Y-94448282D01*
X124522962Y-95080590D01*
X124505925Y-95017007D01*
X124440099Y-94902993D01*
X124347007Y-94809901D01*
X124232993Y-94744075D01*
X124169409Y-94727037D01*
X124801716Y-94094728D01*
X124747550Y-94055375D01*
X124558217Y-93958904D01*
X124356129Y-93893242D01*
X124146246Y-93860000D01*
X123933754Y-93860000D01*
X123723872Y-93893242D01*
X123723869Y-93893242D01*
X123521782Y-93958904D01*
X123332439Y-94055380D01*
X123278282Y-94094727D01*
X123278282Y-94094728D01*
X123910591Y-94727037D01*
X123847007Y-94744075D01*
X123732993Y-94809901D01*
X123639901Y-94902993D01*
X123574075Y-95017007D01*
X123557037Y-95080591D01*
X122924728Y-94448282D01*
X122924727Y-94448282D01*
X122885380Y-94502439D01*
X122788904Y-94691782D01*
X122723242Y-94893869D01*
X122723242Y-94893872D01*
X122690000Y-95103753D01*
X122690000Y-95316246D01*
X122723242Y-95526127D01*
X122723242Y-95526130D01*
X122788904Y-95728217D01*
X122885375Y-95917550D01*
X122924728Y-95971716D01*
X123557037Y-95339408D01*
X123574075Y-95402993D01*
X123639901Y-95517007D01*
X123732993Y-95610099D01*
X123847007Y-95675925D01*
X123910590Y-95692962D01*
X123278282Y-96325269D01*
X123278282Y-96325270D01*
X123332452Y-96364626D01*
X123332451Y-96364626D01*
X123341495Y-96369234D01*
X123392292Y-96417208D01*
X123409087Y-96485029D01*
X123386550Y-96551164D01*
X123341499Y-96590202D01*
X123332182Y-96594949D01*
X123160213Y-96719890D01*
X123009890Y-96870213D01*
X122884951Y-97042179D01*
X122788444Y-97231585D01*
X122722753Y-97433760D01*
X122690219Y-97639174D01*
X122689500Y-97643713D01*
X119480284Y-97643713D01*
X119480272Y-97639174D01*
X119474628Y-95537392D01*
X119471703Y-94448282D01*
X119470882Y-94142320D01*
X119460334Y-90214333D01*
X119479839Y-90147241D01*
X119532520Y-90101344D01*
X119584334Y-90090000D01*
X147656000Y-90090000D01*
X147723039Y-90109685D01*
G37*
%TD.AperFunction*%
%TD*%
M02*
